<svg width="30" height="30" viewBox="0 0 30 30" fill="none" xmlns="http://www.w3.org/2000/svg">
<g clip-path="url(#clip0_1_1841)">
<path d="M25.3964 5.61521C23.4839 4.75271 21.4339 4.11521 19.2901 3.75271C19.271 3.74905 19.2513 3.75141 19.2336 3.75947C19.2159 3.76753 19.2011 3.7809 19.1914 3.79771C18.9289 4.25896 18.6364 4.86021 18.4314 5.33521C16.1577 4.99551 13.8462 4.99551 11.5726 5.33521C11.3443 4.80879 11.0868 4.29549 10.8014 3.79771C10.7917 3.78069 10.7771 3.76702 10.7594 3.75854C10.7418 3.75005 10.722 3.74714 10.7026 3.75021C8.56011 4.11271 6.51011 4.75021 4.59636 5.61396C4.5799 5.62087 4.56594 5.63264 4.55636 5.64771C0.666363 11.3665 -0.399887 16.944 0.123863 22.4515C0.12532 22.465 0.129507 22.478 0.136169 22.4898C0.14283 22.5016 0.151828 22.512 0.162612 22.5202C2.4331 24.1732 4.96553 25.4325 7.65386 26.2452C7.6726 26.251 7.69265 26.251 7.71138 26.2452C7.73011 26.2394 7.74666 26.2281 7.75886 26.2127C8.33736 25.439 8.84998 24.6183 9.29136 23.759C9.29749 23.7472 9.30102 23.7343 9.30172 23.7211C9.30241 23.7078 9.30026 23.6946 9.2954 23.6823C9.29054 23.6699 9.28309 23.6588 9.27355 23.6496C9.26401 23.6404 9.25261 23.6334 9.24011 23.629C8.43262 23.3249 7.65022 22.9579 6.90011 22.5315C6.88663 22.5238 6.87528 22.5128 6.86706 22.4997C6.85884 22.4865 6.85402 22.4715 6.85303 22.456C6.85204 22.4405 6.85491 22.4251 6.86138 22.4109C6.86785 22.3968 6.87772 22.3846 6.89011 22.3752C7.04761 22.259 7.20511 22.1377 7.35511 22.0165C7.36861 22.0056 7.38488 21.9986 7.40209 21.9964C7.41931 21.9942 7.4368 21.9968 7.45261 22.004C12.3614 24.209 17.6776 24.209 22.5289 22.004C22.5447 21.9964 22.5624 21.9934 22.5799 21.9954C22.5973 21.9974 22.6139 22.0043 22.6276 22.0152C22.7776 22.1377 22.9339 22.259 23.0926 22.3752C23.1051 22.3844 23.1152 22.3965 23.1218 22.4105C23.1285 22.4244 23.1316 22.4399 23.1309 22.4554C23.1301 22.4708 23.1256 22.4859 23.1176 22.4992C23.1096 22.5125 23.0984 22.5235 23.0851 22.5315C22.3376 22.9615 21.5601 23.3252 20.7439 23.6277C20.7313 23.6323 20.7199 23.6394 20.7104 23.6487C20.7008 23.6581 20.6934 23.6693 20.6885 23.6817C20.6837 23.6942 20.6815 23.7075 20.6822 23.7208C20.6829 23.7341 20.6865 23.7471 20.6926 23.759C21.1426 24.6177 21.6576 25.4352 22.2239 26.2115C22.2356 26.2274 22.252 26.2393 22.2708 26.2456C22.2896 26.2518 22.3099 26.2521 22.3289 26.2465C25.0218 25.436 27.5584 24.1762 29.8314 22.5202C29.8425 22.5125 29.8518 22.5024 29.8587 22.4908C29.8656 22.4791 29.8699 22.4662 29.8714 22.4527C30.4964 16.0852 28.8239 10.5527 25.4351 5.65021C25.4268 5.63428 25.4131 5.62186 25.3964 5.61521ZM10.0251 19.0977C8.54761 19.0977 7.32886 17.7615 7.32886 16.1227C7.32886 14.4827 8.52386 13.1477 10.0251 13.1477C11.5376 13.1477 12.7451 14.494 12.7214 16.1227C12.7214 17.7627 11.5264 19.0977 10.0251 19.0977V19.0977ZM19.9939 19.0977C18.5151 19.0977 17.2976 17.7615 17.2976 16.1227C17.2976 14.4827 18.4914 13.1477 19.9939 13.1477C21.5064 13.1477 22.7139 14.494 22.6901 16.1227C22.6901 17.7627 21.5076 19.0977 19.9939 19.0977V19.0977Z" fill="white"/>
</g>
<defs>
<clipPath id="clip0_1_1841">
<rect width="30" height="30" fill="white"/>
</clipPath>
</defs>
</svg>
