<svg width="108" height="107" viewBox="0 0 108 107" fill="none" xmlns="http://www.w3.org/2000/svg">
<rect x="3" y="3" width="101.2" height="101.2" rx="9" fill="white"/>
<path d="M13.1179 0.338995C8.18475 1.38407 3.71144 5.10454 1.85105 9.72378C0.617756 12.7336 0.680466 10.6016 0.680466 53.4916C0.680466 96.486 0.617756 94.3123 1.87195 97.2803C3.4397 101.001 6.67971 104.24 10.4214 105.808C13.3688 107.062 11.2157 106.999 54.1929 106.999C96.6893 106.999 94.8916 107.041 97.7554 105.934C101.351 104.512 104.716 101.272 106.368 97.6147C107.684 94.6885 107.58 98.1372 107.664 54.2231C107.705 18.3143 107.684 14.134 107.392 12.65C106.138 6.44224 101.309 1.59309 95.1216 0.318094C93.6792 0.0254725 89.3523 -0.0163305 54.0466 0.00457102C19.8279 0.0254725 14.393 0.0672756 13.1179 0.338995ZM59.2515 19.234C61.0492 19.6311 62.5542 20.4672 63.913 21.8258C65.9615 23.8741 66.7349 25.9643 66.7349 29.5593V31.545H63.5994H60.4639V29.6638C60.4639 27.3229 60.0458 26.3405 58.7916 25.6925C58.06 25.3163 57.5583 25.2745 54.1511 25.2745C50.8275 25.2745 50.2213 25.3163 49.5942 25.6716C48.1519 26.4241 47.5248 28.4306 48.2982 29.8101C48.4863 30.1655 52.7924 34.8683 57.8719 40.2609C62.9305 45.6326 67.362 50.3772 67.7174 50.7744C69.8704 53.3035 71.6681 57.1284 72.5042 61.0161C73.0686 63.6079 73.0268 68.7915 72.4415 71.3833C70.5602 79.4304 65.3553 85.4082 58.4363 87.3939C56.116 88.0627 52.2698 88.0627 49.9495 87.3939C42.5916 85.2828 36.9686 78.3853 35.6935 69.8575C34.7737 63.7751 36.0698 58.6333 39.7069 53.7633C42.3825 50.1891 46.1242 47.66 51.5382 45.758C52.6461 45.3609 53.5658 44.9847 53.5658 44.9219C53.5658 44.8592 51.3083 42.4138 48.5699 39.4876C45.8107 36.5613 43.2814 33.6769 42.926 33.1126C39.8533 28.0126 42.7588 20.9061 48.549 19.3385C49.9914 18.9623 57.6002 18.8786 59.2515 19.234Z" fill="black"/>
<path d="M55.1693 51.3708C53.3346 52.0563 51.1975 52.9636 50.4112 53.3869C46.6612 55.3426 43.7781 59.0724 42.9515 63.0039C42.5483 64.8789 42.6894 67.8628 43.2539 70.141C45.1088 77.3588 51.2378 81.9354 57.0645 80.4233C59.1612 79.8789 60.4112 79.133 62.2459 77.2983C63.6975 75.8668 64.1411 75.262 64.9274 73.6693C66.379 70.6854 66.7217 69.1128 66.7217 65.5039C66.7217 62.8023 66.6613 62.2781 66.1774 60.6652C65.4717 58.3466 64.2822 56.0684 62.9919 54.5765C61.6008 52.9636 58.7782 50.0805 58.6169 50.1006C58.5564 50.1006 57.004 50.6853 55.1693 51.3708Z" fill="black"/>
</svg>
