<svg width="42" height="42" viewBox="0 0 42 42" fill="none" xmlns="http://www.w3.org/2000/svg">
<path d="M5.25 13.125V36.75H28.875V13.125H5.25ZM5.25 10.5H28.875C29.5712 10.5 30.2389 10.7766 30.7312 11.2688C31.2234 11.7611 31.5 12.4288 31.5 13.125V36.75C31.5 37.4462 31.2234 38.1139 30.7312 38.6062C30.2389 39.0984 29.5712 39.375 28.875 39.375H5.25C4.55381 39.375 3.88613 39.0984 3.39385 38.6062C2.90156 38.1139 2.625 37.4462 2.625 36.75V13.125C2.625 12.4288 2.90156 11.7611 3.39385 11.2688C3.88613 10.7766 4.55381 10.5 5.25 10.5V10.5Z" fill="white"/>
<path d="M36.75 23.625H39.375V5.25C39.375 4.55381 39.0984 3.88613 38.6062 3.39384C38.1139 2.90156 37.4462 2.625 36.75 2.625H18.375V5.25H36.75V23.625Z" fill="white"/>
</svg>
