<svg width="68" height="130" viewBox="0 0 68 130" fill="none" xmlns="http://www.w3.org/2000/svg">
<rect opacity="0.46" x="1" y="1" width="66" height="128" rx="33" fill="#3D3D3D" stroke="url(#paint0_linear_1_1238)" stroke-width="2"/>
<circle cx="34" cy="34" r="30" fill="url(#paint1_radial_1_1238)"/>
<g clip-path="url(#clip0_1_1238)">
<path d="M46.6667 34.4997C46.6667 32.8022 46.3331 31.1808 45.6661 29.6356C44.999 28.0904 44.0974 26.7556 42.9612 25.6311C41.825 24.5067 40.4763 23.6144 38.9149 22.9542C37.3536 22.2941 35.7153 21.964 34 21.964C32.2847 21.964 30.6464 22.2941 29.0851 22.9542C27.5237 23.6144 26.175 24.5067 25.0388 25.6311C23.9026 26.7556 23.001 28.0904 22.3339 29.6356C21.6668 31.1808 21.3333 32.8022 21.3333 34.4997C21.3333 36.1973 21.6668 37.8186 22.3339 39.3638C23.001 40.909 23.9026 42.2439 25.0388 43.3683C26.175 44.4927 27.5237 45.385 29.0851 46.0452C30.6464 46.7054 32.2847 47.0354 34 47.0354C35.7153 47.0354 37.3536 46.7054 38.9149 46.0452C40.4763 45.385 41.825 44.4927 42.9612 43.3683C44.0974 42.2439 44.999 40.909 45.6661 39.3638C46.3331 37.8186 46.6667 36.1973 46.6667 34.4997ZM52.7361 40.5282C52.6775 40.7458 52.5309 40.8909 52.2963 40.9634L45.875 43.0527V49.7123C45.875 49.9445 45.7797 50.1331 45.5891 50.2782C45.3692 50.4233 45.1566 50.4523 44.9514 50.3652L38.5301 48.3195L34.5718 53.7168C34.4251 53.9054 34.2346 53.9997 34 53.9997C33.7654 53.9997 33.5748 53.9054 33.4282 53.7168L29.4699 48.3195L23.0486 50.3652C22.8434 50.4523 22.6308 50.4233 22.4109 50.2782C22.2203 50.1331 22.125 49.9445 22.125 49.7123V43.0527L15.7037 40.9634C15.4691 40.8909 15.3225 40.7458 15.2639 40.5282C15.1906 40.2815 15.2199 40.0712 15.3518 39.897L19.3102 34.4997L15.3518 29.1024C15.2199 28.9138 15.1906 28.7034 15.2639 28.4713C15.3225 28.2536 15.4691 28.1085 15.7037 28.036L22.125 25.9467V19.2871C22.125 19.055 22.2203 18.8664 22.4109 18.7213C22.6308 18.5762 22.8434 18.5472 23.0486 18.6342L29.4699 20.68L33.4282 15.2826C33.5602 15.1085 33.7508 15.0215 34 15.0215C34.2492 15.0215 34.4398 15.1085 34.5718 15.2826L38.5301 20.68L44.9514 18.6342C45.1566 18.5472 45.3692 18.5762 45.5891 18.7213C45.7797 18.8664 45.875 19.055 45.875 19.2871V25.9467L52.2963 28.036C52.5309 28.1085 52.6775 28.2536 52.7361 28.4713C52.8094 28.7034 52.7801 28.9138 52.6481 29.1024L48.6898 34.4997L52.6481 39.897C52.7801 40.0712 52.8094 40.2815 52.7361 40.5282Z" fill="#242424"/>
</g>
<defs>
<linearGradient id="paint0_linear_1_1238" x1="-6.53333" y1="-4.05085" x2="-51.4737" y2="72.2281" gradientUnits="userSpaceOnUse">
<stop stop-color="#BEE339"/>
<stop offset="1" stop-color="#CD1B00"/>
</linearGradient>
<radialGradient id="paint1_radial_1_1238" cx="0" cy="0" r="1" gradientUnits="userSpaceOnUse" gradientTransform="translate(9.5 18.5) rotate(46.7357) scale(93.3809)">
<stop stop-color="#D8DCB4"/>
<stop offset="1" stop-color="#D8DCB4" stop-opacity="0"/>
</radialGradient>
<clipPath id="clip0_1_1238">
<rect width="38" height="39" fill="white" transform="translate(15 15)"/>
</clipPath>
</defs>
</svg>
