<svg width="42" height="42" viewBox="0 0 42 42" fill="none" xmlns="http://www.w3.org/2000/svg">
<path d="M17.7976 33.2502C18.059 33.2511 18.3173 33.1934 18.5536 33.0814C18.7898 32.9693 18.9979 32.8058 19.1626 32.6027L27.6151 22.1027C27.8725 21.7896 28.0132 21.3968 28.0132 20.9915C28.0132 20.5861 27.8725 20.1934 27.6151 19.8802L18.8651 9.38024C18.568 9.02286 18.1412 8.79812 17.6784 8.75545C17.2157 8.71279 16.755 8.8557 16.3976 9.15274C16.0402 9.44978 15.8155 9.87663 15.7728 10.3394C15.7301 10.8021 15.873 11.2629 16.1701 11.6202L23.9926 21.0002L16.4326 30.3802C16.2186 30.6371 16.0827 30.9499 16.0409 31.2816C15.9991 31.6133 16.0532 31.9501 16.1968 32.252C16.3404 32.5539 16.5675 32.8084 16.8511 32.9853C17.1348 33.1622 17.4633 33.2541 17.7976 33.2502Z" fill="#3D3D3D"/>
</svg>
