<svg width="111" height="111" viewBox="0 0 111 111" fill="none" xmlns="http://www.w3.org/2000/svg">
<g clip-path="url(#clip0_1_2122)">
<path d="M9.83291 -3.62299C4.34648 -2.4607 -0.628505 1.67702 -2.69754 6.8143C-4.06915 10.1617 -3.99941 7.79061 -3.99941 55.4906C-3.99941 103.307 -4.06915 100.889 -2.67429 104.19C-0.930723 108.328 2.67265 111.931 6.83397 113.674C10.1119 115.069 7.71738 114.999 55.5144 114.999C102.777 114.999 100.777 115.046 103.962 113.814C107.961 112.233 111.704 108.63 113.54 104.562C115.005 101.308 114.889 105.143 114.982 56.3042C115.028 16.3682 115.005 11.7191 114.68 10.0687C113.285 3.16474 107.915 -2.22825 101.033 -3.64623C99.4291 -3.97167 94.6169 -4.01816 55.3517 -3.99492C17.2954 -3.97167 11.251 -3.92518 9.83291 -3.62299ZM61.1404 17.3911C63.1396 17.8327 64.8135 18.7625 66.3246 20.2735C68.6028 22.5516 69.463 24.8761 69.463 28.8744V31.0827H65.9759H62.4887V28.9906C62.4887 26.3871 62.0238 25.2946 60.6289 24.574C59.8152 24.1555 59.2573 24.109 55.4679 24.109C51.7716 24.109 51.0974 24.1555 50.4 24.5507C48.7959 25.3876 48.0985 27.6191 48.9586 29.1533C49.1678 29.5485 53.9568 34.7788 59.606 40.7762C65.2319 46.7503 70.1604 52.027 70.5556 52.4687C72.9501 55.2814 74.9494 59.5354 75.8793 63.8591C76.507 66.7415 76.4605 72.5064 75.8096 75.3889C73.7173 84.3384 67.9287 90.9867 60.2337 93.195C57.6532 93.9389 53.3757 93.9389 50.7952 93.195C42.612 90.8472 36.3584 83.1762 34.9403 73.692C33.9174 66.9275 35.3588 61.2091 39.4039 55.7928C42.3795 51.8178 46.5409 49.0051 52.562 46.8898C53.7941 46.4481 54.817 46.0297 54.817 45.9599C54.817 45.8902 52.3063 43.1705 49.2608 39.9161C46.1922 36.6617 43.3792 33.4538 42.984 32.8261C39.5666 27.1542 42.798 19.2507 49.2376 17.5073C50.8417 17.0889 59.3038 16.9959 61.1404 17.3911Z" fill="white"/>
<path d="M55.8487 53.5901C54.2023 54.2053 52.2845 55.0194 51.5789 55.3994C48.2137 57.1544 45.6264 60.5015 44.8846 64.0295C44.5228 65.7122 44.6494 68.3899 45.156 70.4343C46.8206 76.9115 52.3207 81.0185 57.5495 79.6615C59.4311 79.173 60.5528 78.5036 62.1992 76.8572C63.5019 75.5726 63.8999 75.0298 64.6056 73.6005C65.9082 70.9228 66.2158 69.5116 66.2158 66.273C66.2158 63.8486 66.1615 63.3782 65.7273 61.9308C65.0941 59.8502 64.0266 57.8057 62.8687 56.4669C61.6203 55.0194 59.0873 52.4322 58.9426 52.4503C58.8883 52.4503 57.4952 52.975 55.8487 53.5901Z" fill="white"/>
</g>
<defs>
<clipPath id="clip0_1_2122">
<rect width="111" height="111" rx="55.5" fill="white"/>
</clipPath>
</defs>
</svg>
