<svg width="145" height="145" viewBox="0 0 145 145" fill="none" xmlns="http://www.w3.org/2000/svg">
<g clip-path="url(#clip0_1_1890)">
<path d="M16.8552 0.459392C10.1701 1.87562 4.10812 6.91738 1.58703 13.1771C-0.0842566 17.2558 0.000724096 14.3667 0.000724096 72.4886C0.000724096 130.752 -0.0842566 127.806 1.61536 131.828C3.73987 136.87 8.13054 141.26 13.2011 143.385C17.1952 145.084 14.2775 144.999 72.5176 144.999C130.106 144.999 127.67 145.056 131.551 143.555C136.423 141.629 140.984 137.238 143.222 132.282C145.006 128.316 144.864 132.99 144.978 73.4799C145.034 24.8185 145.006 19.1536 144.61 17.1425C142.91 8.73014 136.366 2.15886 127.982 0.431067C126.027 0.0345241 120.163 -0.0221249 72.3193 0.00619962C25.9482 0.0345241 18.5832 0.0911731 16.8552 0.459392ZM79.3727 26.0647C81.8088 26.6029 83.8484 27.7359 85.6896 29.577C88.4656 32.3528 89.5137 35.1852 89.5137 40.057V42.7479H85.2647H81.0157V40.1987C81.0157 37.0263 80.4491 35.6951 78.7495 34.817C77.7581 34.3072 77.0782 34.2505 72.4609 34.2505C67.957 34.2505 67.1355 34.3072 66.2857 34.7887C64.3311 35.8084 63.4813 38.5275 64.5294 40.3969C64.7843 40.8784 70.6197 47.2515 77.5031 54.5592C84.3582 61.8386 90.3635 68.2682 90.8451 68.8064C93.7628 72.2337 96.1989 77.417 97.332 82.6854C98.0968 86.1976 98.0401 93.2221 97.247 96.7344C94.6976 107.639 87.6442 115.74 78.268 118.431C75.1237 119.337 69.9115 119.337 66.7672 118.431C56.7962 115.57 49.1762 106.223 47.4483 94.6667C46.2019 86.4242 47.9582 79.4564 52.887 72.8568C56.5129 68.0133 61.5834 64.5861 68.9201 62.0085C70.4214 61.4704 71.6678 60.9605 71.6678 60.8755C71.6678 60.7906 68.6085 57.4766 64.8977 53.5112C61.1585 49.5457 57.7309 45.637 57.2494 44.8722C53.0853 37.961 57.0228 28.3307 64.8693 26.2064C66.8239 25.6965 77.1349 25.5832 79.3727 26.0647Z" fill="black"/>
<path d="M72.925 70.1733C70.9188 70.9229 68.582 71.9149 67.7222 72.3779C63.6217 74.5163 60.4692 78.5947 59.5654 82.8936C59.1244 84.9439 59.2788 88.2066 59.896 90.6978C61.9242 98.5901 68.6261 103.594 74.9973 101.941C77.29 101.346 78.6568 100.53 80.663 98.5239C82.2502 96.9587 82.7353 96.2973 83.595 94.5557C85.1823 91.293 85.5571 89.5734 85.5571 85.6273C85.5571 82.6732 85.4909 82.1 84.9619 80.3363C84.1903 77.8011 82.8896 75.31 81.4787 73.6786C79.9575 71.9149 76.8711 68.7624 76.6948 68.7845C76.6286 68.7845 74.9311 69.4238 72.925 70.1733Z" fill="black"/>
</g>
<defs>
<clipPath id="clip0_1_1890">
<rect width="145" height="145" rx="72.5" fill="white"/>
</clipPath>
</defs>
</svg>
