<svg width="147" height="89" viewBox="0 0 147 89" fill="none" xmlns="http://www.w3.org/2000/svg">
<g clip-path="url(#clip0_1_1497)">
<path d="M41.4044 32.0794C41.3666 33.5555 41.5478 35.0291 41.9419 36.4516C42.376 37.6676 42.8986 38.8499 43.5055 39.9887C43.7228 40.3255 43.8414 40.7171 43.8475 41.1186C43.8161 41.4195 43.716 41.7091 43.5549 41.9647C43.3939 42.2203 43.1763 42.4351 42.9192 42.5923L39.8409 44.6556C39.4695 44.9247 39.0278 45.0785 38.5704 45.0978C38.0139 45.0594 37.4914 44.8142 37.1046 44.41C36.4462 43.6987 35.8571 42.9255 35.3455 42.1011C34.8569 41.2659 34.3683 40.3325 33.8308 39.2027C30.0196 43.7222 25.2311 45.982 19.4654 45.982C15.3609 45.982 12.0872 44.803 9.69294 42.445C7.2987 40.0869 6.07715 36.9429 6.07715 33.0128C6.07715 28.8371 7.54301 25.4474 10.5236 22.8928C13.5042 20.3383 17.462 19.061 22.4948 19.061C24.2281 19.0752 25.9584 19.2065 27.6742 19.454C29.4821 19.6997 31.3389 20.0927 33.2933 20.5348V16.9486C33.2933 13.215 32.5115 10.6114 30.9968 9.08845C29.4821 7.56555 26.7947 6.82866 23.0323 6.82866C21.2542 6.8286 19.4825 7.04301 17.7552 7.4673C15.959 7.89754 14.1955 8.45571 12.4781 9.13758C11.9224 9.38756 11.3512 9.60089 10.7679 9.77621C10.515 9.86007 10.2521 9.90963 9.98612 9.92359C9.30205 9.92359 8.96001 9.43233 8.96001 8.40069V5.99352C8.90762 5.39926 9.02635 4.80239 9.30205 4.27411C9.67066 3.82642 10.1395 3.47289 10.6702 3.24246C12.63 2.2675 14.6961 1.52561 16.8268 1.03179C19.3166 0.38951 21.8789 0.0757466 24.4493 0.0984043C30.2639 0.0984043 34.5149 1.4248 37.2512 4.0776C39.9874 6.73041 41.3067 10.7587 41.3067 16.1626V32.0794H41.4044ZM21.5664 39.5465C23.2806 39.5276 24.9803 39.229 26.5992 38.6623C28.3926 38.0389 29.9928 36.955 31.2411 35.5182C32.0287 34.613 32.5973 33.537 32.9024 32.3741C33.2382 30.9749 33.4023 29.5396 33.3911 28.1002V26.0369C31.9093 25.6743 30.4085 25.3955 28.8957 25.2018C27.3723 25.0073 25.8383 24.9089 24.3027 24.907C21.0289 24.907 18.6347 25.5456 17.0223 26.872C15.4098 28.1984 14.628 30.0652 14.628 32.5215C14.628 34.8304 15.2144 36.5498 16.4359 37.7289C17.6575 38.9079 19.3188 39.5465 21.5664 39.5465ZM60.8027 44.8521C60.145 44.9201 59.4851 44.7456 58.9459 44.3609C58.4345 43.8297 58.0794 43.1666 57.9198 42.445L46.4372 4.47061C46.2147 3.83516 46.0671 3.17563 45.9975 2.50557C45.9734 2.34298 45.9867 2.177 46.0364 2.02037C46.086 1.86375 46.1707 1.72065 46.2839 1.60207C46.3972 1.48348 46.5359 1.39256 46.6896 1.33628C46.8432 1.28 47.0076 1.25987 47.1702 1.27742H51.9587C52.887 1.27742 53.5222 1.4248 53.8643 1.76868C54.2063 2.11256 54.5483 2.7512 54.8415 3.6846L63.0503 36.206L70.6728 3.6846C70.9171 2.70208 71.2103 2.06344 71.6012 1.76868C72.1874 1.40789 72.8696 1.23644 73.5557 1.27742H77.4647C78.393 1.27742 79.0283 1.4248 79.4191 1.76868C79.9302 2.287 80.2565 2.96054 80.3475 3.6846L88.0677 36.599L96.5209 3.6846C96.6762 2.97167 97.0129 2.31149 97.4981 1.76868C98.0659 1.40691 98.7329 1.23496 99.4037 1.27742H103.948C104.114 1.25467 104.282 1.27075 104.441 1.32442C104.599 1.3781 104.743 1.4679 104.862 1.58682C104.98 1.70574 105.069 1.85055 105.123 2.00993C105.176 2.16931 105.192 2.33894 105.169 2.50557C105.158 2.7698 105.125 3.03266 105.072 3.29159C104.995 3.7106 104.881 4.12169 104.73 4.51974L92.9539 42.4941C92.6608 43.4766 92.3187 44.1152 91.9278 44.41C91.3755 44.7655 90.7259 44.9373 90.0711 44.9013H85.8689C84.9406 44.9013 84.3053 44.7539 83.9145 44.41C83.4043 43.8714 83.0789 43.1828 82.9861 42.445L75.4125 10.7587L67.8877 42.3958C67.7733 43.1272 67.4509 43.8096 66.9593 44.3609C66.3826 44.744 65.693 44.9174 65.0048 44.8521H60.8027ZM123.59 46.1785C121.056 46.1813 118.531 45.8845 116.066 45.2943C113.623 44.7048 111.717 44.0661 110.447 43.3292C109.818 43.031 109.291 42.5524 108.932 41.9537C108.742 41.5201 108.642 41.052 108.639 40.5782V38.0728C108.639 37.0411 109.03 36.5499 109.762 36.5499C110.062 36.5508 110.359 36.6006 110.642 36.6972C110.935 36.7955 111.375 36.992 111.864 37.1885C113.589 37.9517 115.391 38.5281 117.238 38.9079C119.152 39.2985 121.1 39.4959 123.053 39.4974C126.131 39.4974 128.526 38.957 130.187 37.8763C130.983 37.3933 131.637 36.707 132.083 35.8872C132.529 35.0675 132.752 34.1435 132.728 33.2093C132.745 32.5769 132.637 31.9473 132.411 31.357C132.184 30.7668 131.844 30.2275 131.408 29.7705C130.529 28.8371 128.868 28.0019 126.473 27.2159L119.388 25.0053C115.821 23.8754 113.183 22.2051 111.57 19.9944C109.997 17.9556 109.139 15.4514 109.127 12.8711C109.088 10.9691 109.543 9.0895 110.447 7.41817C111.319 5.83776 112.519 4.46405 113.965 3.38984C115.488 2.23099 117.21 1.36494 119.046 0.835293C121.047 0.255816 123.121 -0.0255599 125.203 0.000150208C126.297 -0.0078503 127.391 0.0577984 128.477 0.196655C129.601 0.344033 130.627 0.540536 131.653 0.737039C132.679 0.933543 133.558 1.2283 134.438 1.52305C135.151 1.74478 135.839 2.04117 136.49 2.40732C137.065 2.69901 137.567 3.1191 137.956 3.63547C138.274 4.11352 138.428 4.68257 138.396 5.25663V7.56555C138.396 8.59719 138.005 9.13758 137.272 9.13758C136.621 9.06324 135.99 8.86306 135.415 8.54807C132.462 7.23581 129.262 6.58219 126.034 6.63215C123.248 6.63215 121.05 7.07429 119.535 8.00768C118.02 8.94107 117.238 10.3657 117.238 12.3799C117.225 13.0322 117.349 13.6801 117.601 14.2811C117.854 14.8822 118.23 15.4228 118.704 15.8678C119.682 16.8012 121.489 17.7346 124.079 18.5698L131.018 20.7804C134.536 21.9103 137.076 23.4824 138.591 25.4965C140.083 27.4727 140.874 29.8937 140.839 32.3741C140.864 34.3474 140.429 36.2991 139.568 38.0728C138.701 39.7542 137.485 41.2286 136.001 42.3958C134.388 43.6581 132.546 44.5925 130.578 45.1469C128.315 45.8467 125.958 46.1946 123.59 46.1785V46.1785Z" fill="#3D3D3D"/>
<path d="M132.826 70.0536C116.751 81.9912 93.3948 88.3285 73.3124 88.3285C45.1679 88.3285 19.8085 77.8647 0.654513 60.4741C-0.860211 59.0985 0.507928 57.2318 2.31582 58.3125C23.0334 70.3975 48.5882 77.7173 75.0226 77.7173C94.0737 77.6157 112.918 73.743 130.481 66.3201C133.169 65.0919 135.465 68.0886 132.826 70.0536ZM139.521 62.39C137.468 59.7372 125.937 61.1127 120.709 61.7513C119.145 61.9478 118.901 60.5723 120.318 59.5407C129.504 53.0561 144.602 54.9228 146.361 57.0844C148.12 59.2459 145.873 74.475 137.273 81.7456C135.954 82.8755 134.683 82.286 135.27 80.8122C137.224 75.9487 141.573 64.9937 139.521 62.39Z" fill="#FF9900"/>
</g>
<defs>
<clipPath id="clip0_1_1497">
<rect width="146.914" height="88.3285" fill="white"/>
</clipPath>
</defs>
</svg>
