<svg width="130" height="130" viewBox="0 0 130 130" fill="none" xmlns="http://www.w3.org/2000/svg">
<circle opacity="0.4" cx="65" cy="65" r="65" fill="#767676"/>
<path d="M55.1879 41.0378C55.1879 38.008 57.6528 35.5432 60.6825 35.5432C62.8066 35.5432 64.7615 36.7876 65.6631 38.7147C65.9363 39.2975 65.6843 39.9901 65.1021 40.2633C64.5206 40.5365 63.8267 40.2858 63.5535 39.7023C63.0329 38.5916 61.9056 37.8725 60.6811 37.8725C58.9353 37.8725 57.5151 39.2928 57.5151 41.0385C57.5151 41.6822 56.9938 42.2028 56.3508 42.2028C55.7084 42.2021 55.1878 41.6815 55.1878 41.0378L55.1879 41.0378ZM97.9999 80.3917C97.9999 83.6299 95.3656 86.2641 92.1274 86.2641C89.1572 86.2641 86.7016 84.046 86.3153 81.1797H80.3939C79.7503 81.1797 79.2297 80.6584 79.2297 80.0154L79.2303 64.2327H66.554V89.1358C69.2359 89.6776 71.2622 92.0519 71.2622 94.891C71.2622 98.1292 68.6279 100.763 65.3897 100.763C62.1516 100.763 59.5173 98.1292 59.5173 94.891C59.5173 92.0517 61.5429 89.6782 64.2241 89.1358L64.2248 64.2327H51.5491V80.0154C51.5491 80.6591 51.0279 81.1797 50.3849 81.1797H44.4635C44.0765 84.0454 41.6216 86.2641 38.6513 86.2641C35.4132 86.2641 32.7803 83.6299 32.7803 80.3917C32.7803 77.1535 35.4145 74.5193 38.6513 74.5193C41.355 74.5193 43.6313 76.3589 44.3107 78.8496H49.2199V64.2325H45.0052C38.4647 64.2325 33.5317 59.3405 33.5317 52.853C33.5317 46.5783 38.6778 41.4734 45.0052 41.4734C46.1047 41.4734 47.2009 41.6322 48.252 41.9378C48.2309 41.6381 48.219 41.3371 48.219 41.0368C48.219 34.1648 53.8096 28.5742 60.6815 28.5742C65.0933 28.5742 69.1842 30.9412 71.4096 34.6941C72.6811 34.1377 74.0623 33.8473 75.4622 33.8473C79.3903 33.8473 82.9956 36.1766 84.6363 39.7091C92.0937 41.1294 97.245 46.0227 97.245 51.7701C97.245 59.9122 89.3278 63.8357 81.5575 64.2015V78.8511H86.4666C87.146 76.3604 89.423 74.5208 92.126 74.5208C95.3655 74.5208 97.9998 77.155 97.9998 80.3918L97.9999 80.3917ZM42.1918 80.432C42.1416 80.3024 42.1118 80.1621 42.1118 80.0153C42.1118 79.9333 42.1204 79.8539 42.1369 79.7765C41.8439 78.116 40.3938 76.8492 38.6513 76.8492C36.6972 76.8492 35.1082 78.4382 35.1082 80.3924C35.1082 82.3466 36.6972 83.9356 38.6513 83.9356C40.5902 83.9356 42.1693 82.3677 42.1918 80.432L42.1918 80.432ZM65.3896 91.3486C63.4354 91.3486 61.8464 92.9376 61.8464 94.8918C61.8464 96.8459 63.4354 98.4349 65.3896 98.4349C67.3438 98.4349 68.9334 96.8459 68.9334 94.8918C68.9328 92.9376 67.3438 91.3486 65.3896 91.3486ZM45.0048 61.9052H80.3586C85.7659 61.9052 94.9168 59.771 94.9168 51.7712C94.9168 47.104 90.1691 42.9517 83.6272 41.8965C83.2177 41.831 82.875 41.5518 82.7262 41.1648C81.5784 38.1814 78.6591 36.1762 75.4626 36.1762C74.07 36.1762 72.7033 36.5487 71.5106 37.2545C71.2268 37.4219 70.8874 37.4616 70.5745 37.365C70.2609 37.2684 70.0023 37.0435 69.8634 36.7465C68.2016 33.1981 64.5982 30.9045 60.6813 30.9045C55.0934 30.9045 50.5473 35.4513 50.5473 41.0385C50.5473 41.8648 50.6479 42.6884 50.8457 43.4862C50.9548 43.9287 50.7961 44.3951 50.4395 44.6782C50.0823 44.962 49.5934 45.0123 49.1866 44.8039C47.886 44.1411 46.4797 43.8044 45.0051 43.8044C39.9623 43.8044 35.8601 47.8649 35.8601 52.8554C35.8608 58.0986 39.7063 61.9052 45.0044 61.9052L45.0048 61.9052ZM95.6696 80.3916C95.6696 78.4374 94.0806 76.8484 92.1264 76.8484C90.3826 76.8484 88.9333 78.1152 88.6408 79.7756C88.6574 79.853 88.666 79.9324 88.666 80.0145C88.666 80.1613 88.6362 80.3009 88.5859 80.4306C88.6071 82.3662 90.1868 83.9341 92.1271 83.9341C94.0805 83.9354 95.6696 82.3458 95.6696 80.3916L95.6696 80.3916Z" fill="#3D3D3D"/>
</svg>
