<svg width="257" height="48" viewBox="0 0 257 48" fill="none" xmlns="http://www.w3.org/2000/svg">
<path d="M0 0H18.8413C22.4302 0 25.1218 0.900001 27.1156 2.4C29.3088 4.2 30.5051 6.8 30.5051 10C30.5051 13.7 29.0097 16 26.019 17.4V17.6C30.0066 18.9 32.2995 22.5 32.2995 26.8C32.2995 30.9 30.7044 34.1 28.1125 36.1C25.9193 37.7 23.128 38.4 19.3398 38.4H0V0ZM16.9472 15C18.941 15 20.4364 13.9 20.4364 11.6C20.4364 9.4 18.941 8.3 16.8476 8.3H10.3677V14.9H16.9472V15ZM17.8444 29.9C20.1373 29.9 21.832 28.5 21.832 26C21.832 23.3 20.0376 22.1 17.8444 22.1H10.4674V30H17.8444V29.9Z" fill="#3D3D3D"/>
<path d="M33.9941 0H43.8634V38.5H33.9941V0Z" fill="#3D3D3D"/>
<path d="M45.8572 24.7998C45.8572 16.0998 51.4398 10.2998 60.1128 10.2998C68.7858 10.2998 74.2687 16.1998 74.2687 24.7998C74.2687 33.4998 68.7858 39.2998 60.1128 39.2998C51.4398 39.2998 45.8572 33.4998 45.8572 24.7998ZM64.3995 24.7998C64.3995 19.9998 62.9041 16.9998 59.9134 16.9998C56.9227 16.9998 55.5271 19.9998 55.5271 24.7998C55.5271 29.5998 56.9227 32.6998 59.9134 32.6998C62.9041 32.5998 64.3995 29.5998 64.3995 24.7998Z" fill="#3D3D3D"/>
<path d="M75.3655 24.7998C75.3655 16.0998 80.9481 10.2998 89.6211 10.2998C98.2941 10.2998 103.677 16.0998 103.677 24.7998C103.677 33.4998 98.1944 39.2998 89.5214 39.2998C80.9481 39.2998 75.3655 33.4998 75.3655 24.7998ZM93.9078 24.7998C93.9078 19.9998 92.4124 16.9998 89.4217 16.9998C86.431 16.9998 85.0354 19.9998 85.0354 24.7998C85.0354 29.5998 86.431 32.6998 89.4217 32.6998C92.4124 32.5998 93.9078 29.5998 93.9078 24.7998Z" fill="#3D3D3D"/>
<path d="M105.671 11.0002H114.843V15.1002H115.042C116.836 11.9002 119.329 10.2002 123.316 10.2002C126.805 10.2002 129.397 11.9002 130.693 14.9002H130.893C133.086 11.3002 135.977 10.2002 139.366 10.2002C145.746 10.2002 148.438 14.9002 148.438 21.2002V38.4002H138.868V22.9002C138.868 20.1002 137.971 18.3002 135.578 18.3002C133.185 18.3002 131.989 20.5002 131.989 23.5002V38.4002H122.419V22.9002C122.419 20.1002 121.522 18.3002 119.129 18.3002C116.737 18.3002 115.54 20.5002 115.54 23.5002V38.4002H105.671C105.671 38.4002 105.671 11.0002 105.671 11.0002Z" fill="#3D3D3D"/>
<path d="M160.5 34.8H160.401V38.4H151.229V0H160.799V13.8H160.999C162.793 11.4 165.285 10.1 168.775 10.1C175.653 10.1 179.641 16.3 179.641 24.6C179.641 33.9 175.354 39.3 168.176 39.3C165.186 39.3 162.095 37.9 160.5 34.8ZM169.772 24.5C169.772 20.1 168.176 17.2 165.285 17.2C162.295 17.2 160.5 20.1 160.5 24.5C160.5 28.9 162.394 31.8 165.285 31.8C168.176 31.8 169.772 29 169.772 24.5Z" fill="#3D3D3D"/>
<path d="M180.737 24.7002C180.737 16.1002 186.42 10.2002 194.594 10.2002C198.681 10.2002 201.772 11.5002 204.164 13.8002C207.354 16.9002 208.75 21.7002 208.65 27.3002H190.308C190.706 30.7002 192.301 32.5002 195.192 32.5002C196.887 32.5002 198.382 31.7002 198.981 29.9002H208.252C206.657 36.2002 201.772 39.3002 194.893 39.3002C186.42 39.2002 180.737 33.4002 180.737 24.7002ZM190.308 21.8002H199.08C198.881 18.5002 197.086 16.8002 194.794 16.8002C192.102 16.7002 190.607 18.6002 190.308 21.8002Z" fill="#3D3D3D"/>
<path d="M219.517 15.6999H219.716C221.71 11.8999 224.302 10.3999 227.592 10.3999C228.389 10.3999 228.887 10.4999 229.187 10.6999V19.0999H228.987C223.305 18.0999 220.015 20.7999 220.015 26.9999V38.4999H210.345V10.9999H219.517V15.6999Z" fill="#3D3D3D"/>
<path d="M230.184 38.5001H239.455C239.853 39.7001 241.05 40.8001 243.343 40.8001C246.433 40.8001 247.53 38.9001 247.53 36.0001V34.0001H247.33C245.835 35.8001 243.741 37.1001 240.751 37.1001C234.869 37.1001 229.685 32.7001 229.685 24.1001C229.685 16.2001 233.872 10.1001 240.252 10.1001C243.941 10.1001 246.134 11.6001 247.629 13.9001H247.829V10.9001H257V34.7001C257 39.1001 255.505 42.5001 253.212 44.5001C250.819 46.6001 247.43 47.5001 243.542 47.5001C236.165 47.6001 231.081 44.6001 230.184 38.5001ZM247.928 23.7001C247.928 20.3001 246.333 17.5001 243.542 17.5001C240.85 17.5001 239.156 19.9001 239.156 23.7001C239.156 27.4001 240.85 30.0001 243.542 30.0001C246.234 30.0001 247.928 27.3001 247.928 23.7001Z" fill="#3D3D3D"/>
</svg>
