<svg width="111" height="111" viewBox="0 0 111 111" fill="none" xmlns="http://www.w3.org/2000/svg">
<path d="M55.5 111C86.1518 111 111 86.1518 111 55.5C111 24.8482 86.1518 0 55.5 0C24.8482 0 0 24.8482 0 55.5C0 86.1518 24.8482 111 55.5 111Z" fill="url(#paint0_linear_1_2087)"/>
<path fill-rule="evenodd" clip-rule="evenodd" d="M34.4515 30.8334H55.5932C68.4531 30.8334 78.2011 37.7455 81.8275 47.8032H88.4131V53.8827H83.2144C83.316 54.8434 83.3682 55.8219 83.3682 56.8164V56.9657C83.3682 58.0851 83.3021 59.1857 83.1734 60.2635H88.4131V66.3424H81.702C77.9802 76.2603 68.3077 83.1068 55.5932 83.1068H34.4515V66.3424H27.105V60.2635H34.4515V53.8827H27.105V47.8032H34.4515V30.8334ZM40.3619 66.3424V77.6533H55.5932C64.9921 77.6533 71.9751 73.1234 75.2258 66.3424H40.3619ZM77.0367 60.2635H40.3619V53.8827H77.0462C77.1821 54.8867 77.2515 55.9162 77.2515 56.9657V57.115C77.2515 58.1884 77.1788 59.2395 77.0367 60.2635ZM55.5932 36.2778C65.0354 36.2778 72.0395 40.9274 75.2707 47.8032H40.3619V36.2778H55.5932Z" fill="white"/>
<defs>
<linearGradient id="paint0_linear_1_2087" x1="55.5" y1="-15.725" x2="55.5" y2="122.655" gradientUnits="userSpaceOnUse">
<stop stop-color="#F9A606"/>
<stop offset="1" stop-color="#FBCC5F"/>
</linearGradient>
</defs>
</svg>
