<svg width="130" height="130" viewBox="0 0 130 130" fill="none" xmlns="http://www.w3.org/2000/svg">
<circle opacity="0.4" cx="65" cy="65" r="65" fill="#767676"/>
<g clip-path="url(#clip0_1_2143)">
<path d="M47.3915 58.159C47.3702 58.9946 47.4725 59.8288 47.6952 60.634C47.9404 61.3223 48.2357 61.9916 48.5785 62.6362C48.7013 62.8269 48.7683 63.0485 48.7718 63.2758C48.754 63.4461 48.6975 63.6101 48.6065 63.7548C48.5155 63.8995 48.3926 64.0211 48.2473 64.1101L46.5082 65.278C46.2984 65.4304 46.0488 65.5174 45.7904 65.5283C45.476 65.5066 45.1808 65.3678 44.9623 65.139C44.5903 64.7363 44.2575 64.2986 43.9685 63.832C43.6925 63.3592 43.4164 62.8309 43.1128 62.1913C40.9596 64.7497 38.2543 66.0289 34.9969 66.0289C32.6781 66.0289 30.8285 65.3614 29.4759 64.0266C28.1232 62.6918 27.4331 60.9121 27.4331 58.6874C27.4331 56.3236 28.2613 54.4048 29.9452 52.9588C31.6291 51.5127 33.8651 50.7897 36.7084 50.7897C37.6876 50.7977 38.6652 50.8721 39.6345 51.0122C40.6559 51.1512 41.7049 51.3737 42.8091 51.624V49.5939C42.8091 47.4805 42.3674 46.0066 41.5117 45.1445C40.6559 44.2825 39.1376 43.8653 37.012 43.8653C36.0075 43.8653 35.0066 43.9867 34.0307 44.2269C33.0159 44.4704 32.0196 44.7864 31.0494 45.1724C30.7354 45.3139 30.4127 45.4346 30.0832 45.5339C29.9403 45.5813 29.7918 45.6094 29.6415 45.6173C29.255 45.6173 29.0618 45.3392 29.0618 44.7552V43.3926C29.0322 43.0562 29.0993 42.7183 29.255 42.4193C29.4633 42.1659 29.7282 41.9657 30.028 41.8353C31.1352 41.2834 32.3025 40.8635 33.5062 40.5839C34.9128 40.2203 36.3605 40.0427 37.8126 40.0556C41.0976 40.0556 43.4992 40.8064 45.0451 42.3081C46.591 43.8097 47.3363 46.09 47.3363 49.149V58.159H47.3915ZM36.1839 62.3859C37.1523 62.3752 38.1126 62.2061 39.0272 61.8854C40.0404 61.5325 40.9444 60.919 41.6497 60.1056C42.0946 59.5932 42.4159 58.9841 42.5883 58.3259C42.7779 57.5338 42.8706 56.7213 42.8643 55.9065V54.7385C42.0272 54.5333 41.1793 54.3754 40.3246 54.2658C39.464 54.1557 38.5973 54.1 37.7298 54.0989C35.8802 54.0989 34.5276 54.4604 33.6166 55.2113C32.7057 55.9621 32.264 57.0188 32.264 58.4093C32.264 59.7163 32.5952 60.6896 33.2854 61.357C33.9755 62.0244 34.9141 62.3859 36.1839 62.3859ZM58.3507 65.3893C57.9792 65.4278 57.6064 65.3289 57.3017 65.1112C57.0128 64.8105 56.8122 64.4351 56.722 64.0266L50.2348 42.5305C50.1091 42.1708 50.0257 41.7975 49.9864 41.4182C49.9728 41.3261 49.9803 41.2322 50.0084 41.1435C50.0364 41.0549 50.0843 40.9739 50.1482 40.9067C50.2122 40.8396 50.2906 40.7881 50.3774 40.7563C50.4642 40.7244 50.5571 40.713 50.6489 40.723H53.3542C53.8787 40.723 54.2376 40.8064 54.4308 41.001C54.624 41.1957 54.8173 41.5572 54.9829 42.0856L59.6206 60.4949L63.9269 42.0856C64.065 41.5294 64.2306 41.1679 64.4514 41.001C64.7826 40.7968 65.168 40.6998 65.5556 40.723H67.764C68.2885 40.723 68.6474 40.8064 68.8682 41.001C69.1569 41.2945 69.3413 41.6757 69.3927 42.0856L73.7543 60.7174L78.53 42.0856C78.6177 41.682 78.808 41.3083 79.0821 41.001C79.4028 40.7963 79.7797 40.6989 80.1587 40.723H82.7259C82.8196 40.7101 82.9149 40.7192 83.0045 40.7496C83.094 40.78 83.1754 40.8308 83.2422 40.8981C83.309 40.9654 83.3595 41.0474 83.3897 41.1376C83.4198 41.2278 83.4289 41.3239 83.4161 41.4182C83.4096 41.5677 83.3911 41.7165 83.3609 41.8631C83.3176 42.1003 83.2529 42.333 83.1676 42.5583L76.5148 64.0544C76.3492 64.6106 76.156 64.9721 75.9351 65.139C75.6231 65.3402 75.2561 65.4375 74.8861 65.4171H72.5121C71.9876 65.4171 71.6287 65.3336 71.4079 65.139C71.1197 64.8341 70.9359 64.4443 70.8834 64.0266L66.6046 46.09L62.3535 63.9988C62.2888 64.4128 62.1067 64.7991 61.829 65.1112C61.5032 65.328 61.1135 65.4262 60.7248 65.3893H58.3507ZM93.8232 66.1401C92.3915 66.1416 90.9647 65.9736 89.572 65.6395C88.1917 65.3058 87.1151 64.9443 86.3974 64.5272C86.0421 64.3584 85.7444 64.0875 85.5417 63.7485C85.4342 63.5031 85.3779 63.2381 85.376 62.9699V61.5517C85.376 60.9677 85.5969 60.6896 86.0109 60.6896C86.18 60.6901 86.3478 60.7183 86.5078 60.773C86.6735 60.8286 86.9219 60.9399 87.198 61.0511C88.173 61.4831 89.1909 61.8094 90.2345 62.0244C91.3158 62.2455 92.4162 62.3573 93.5195 62.3581C95.2586 62.3581 96.6113 62.0522 97.5498 61.4404C97.9994 61.167 98.369 60.7785 98.6212 60.3145C98.8733 59.8505 98.999 59.3274 98.9853 58.7986C98.995 58.4406 98.9341 58.0842 98.8062 57.7501C98.6782 57.416 98.4858 57.1107 98.24 56.852C97.7431 56.3236 96.8045 55.8509 95.4519 55.4059L91.4491 54.1546C89.434 53.515 87.9433 52.5695 87.0323 51.3181C86.1437 50.1639 85.6585 48.7464 85.6521 47.2858C85.6297 46.2091 85.8867 45.1451 86.3974 44.199C86.8903 43.3044 87.5681 42.5268 88.385 41.9187C89.2454 41.2627 90.2187 40.7725 91.2559 40.4727C92.3861 40.1447 93.558 39.9854 94.7341 39.9999C95.3524 39.9954 95.9703 40.0326 96.5837 40.1112C97.2186 40.1946 97.7983 40.3058 98.378 40.4171C98.9577 40.5283 99.4546 40.6952 99.9515 40.862C100.354 40.9875 100.743 41.1553 101.111 41.3626C101.436 41.5277 101.719 41.7655 101.939 42.0578C102.119 42.3284 102.206 42.6505 102.187 42.9755V44.2825C102.187 44.8665 101.967 45.1724 101.553 45.1724C101.185 45.1303 100.829 45.017 100.504 44.8386C98.8353 44.0958 97.0272 43.7258 95.2034 43.7541C93.6299 43.7541 92.3877 44.0044 91.5319 44.5328C90.6762 45.0611 90.2345 45.8676 90.2345 47.0077C90.2269 47.377 90.2967 47.7437 90.4394 48.084C90.5821 48.4242 90.7945 48.7302 91.0627 48.9821C91.6148 49.5105 92.6362 50.0389 94.0992 50.5116L98.0191 51.763C100.007 52.4026 101.442 53.2925 102.298 54.4326C103.141 55.5513 103.587 56.9217 103.568 58.3259C103.582 59.4428 103.336 60.5476 102.85 61.5517C102.36 62.5035 101.673 63.3381 100.835 63.9988C99.9235 64.7133 98.8827 65.2423 97.7707 65.5561C96.4921 65.9523 95.1609 66.1492 93.8232 66.1401V66.1401Z" fill="#3D3D3D"/>
<path d="M99.0412 79.6552C89.9592 86.4127 76.764 90 65.4183 90C49.5178 90 35.1908 84.0768 24.3697 74.2325C23.5139 73.4539 24.2868 72.3971 25.3082 73.0089C37.0128 79.8498 51.4502 83.9933 66.3845 83.9933C77.1476 83.9359 87.794 81.7436 97.7162 77.5417C99.2345 76.8465 100.532 78.5428 99.0412 79.6552ZM102.823 75.317C101.664 73.8154 95.1489 74.594 92.1952 74.9555C91.3118 75.0668 91.1738 74.2881 91.9743 73.7041C97.1641 70.0334 105.694 71.0901 106.688 72.3137C107.682 73.5373 106.412 82.158 101.553 86.2737C100.808 86.9133 100.09 86.5795 100.421 85.7453C101.526 82.9922 103.983 76.7909 102.823 75.317Z" fill="#3D3D3D"/>
</g>
<defs>
<clipPath id="clip0_1_2143">
<rect width="83" height="50" fill="white" transform="translate(24 40)"/>
</clipPath>
</defs>
</svg>
