<svg width="855" height="85" viewBox="0 0 855 85" fill="none" xmlns="http://www.w3.org/2000/svg">
<rect x="110" width="85" height="85" rx="10" fill="#5C3FBB"/>
<path d="M172.474 29.938C171.39 31.5671 170.06 32.9557 168.483 34.104C168.499 34.412 168.507 34.7601 168.507 35.1483C168.507 37.3052 168.195 39.4647 167.573 41.6268C166.95 43.789 165.999 45.8586 164.72 47.8355C163.44 49.8125 161.916 51.5639 160.147 53.0898C158.378 54.6157 156.252 55.8323 153.768 56.7397C151.285 57.6472 148.623 58.1009 145.783 58.1009C141.351 58.1009 137.27 56.8923 133.539 54.4751C134.201 54.5495 134.836 54.5868 135.444 54.5868C139.147 54.5868 142.454 53.4348 145.365 51.1308C143.639 51.0989 142.093 50.5621 140.727 49.5204C139.361 48.4788 138.421 47.1478 137.907 45.5274C138.415 45.6252 138.917 45.6741 139.411 45.6741C140.124 45.6741 140.825 45.5802 141.514 45.3925C139.672 45.0198 138.143 44.0929 136.929 42.6119C135.714 41.1308 135.107 39.4214 135.107 37.4836V37.3838C136.238 38.0162 137.444 38.3527 138.726 38.393C137.635 37.6581 136.769 36.6997 136.13 35.5178C135.491 34.336 135.171 33.057 135.171 31.6809C135.171 30.2296 135.531 28.8782 136.251 27.6266C138.255 30.1101 140.682 32.095 143.534 33.5813C146.386 35.0676 149.446 35.893 152.713 36.0576C152.574 35.471 152.504 34.8588 152.504 34.2211C152.504 31.9945 153.284 30.0933 154.844 28.5175C156.404 26.9417 158.286 26.1538 160.491 26.1538C162.799 26.1538 164.743 27.0027 166.323 28.7003C168.128 28.3391 169.818 27.6858 171.394 26.7404C170.787 28.6698 169.617 30.1582 167.885 31.2056C169.477 31.0145 171.007 30.592 172.474 29.938H172.474Z" fill="white"/>
<rect width="85" height="85" rx="10" fill="#5C3FBB"/>
<path d="M60.2686 29.0889L54.7233 55.2405C54.3046 57.0859 53.2139 57.5453 51.6638 56.6764L43.2139 50.4499L39.1373 54.3716C38.6858 54.8231 38.3091 55.1998 37.4389 55.1998L38.0466 46.5951L53.7061 32.445C54.3873 31.8386 53.5578 31.5013 52.6482 32.109L33.2888 44.2995L24.9544 41.6903C23.1419 41.1246 23.1091 39.8777 25.3324 39.0075L57.931 26.4482C59.4404 25.8825 60.7608 26.7842 60.2686 29.0903V29.0889Z" fill="white"/>
<rect x="220" width="85" height="85" rx="10" fill="#5C3FBB"/>
<path d="M282.204 33.1568C281.966 32.31 281.504 31.5434 280.866 30.9384C280.209 30.3149 279.405 29.8688 278.528 29.6423C275.248 28.7777 262.105 28.7777 262.105 28.7777C256.626 28.7154 251.149 28.9895 245.703 29.5987C244.827 29.8418 244.024 30.2979 243.366 30.9262C242.72 31.5481 242.252 32.3149 242.007 33.1551C241.42 36.3197 241.134 39.5331 241.155 42.7517C241.134 45.9675 241.419 49.1798 242.007 52.3484C242.247 53.1851 242.713 53.9484 243.361 54.565C244.009 55.1816 244.816 55.627 245.703 55.8628C249.027 56.7257 262.105 56.7257 262.105 56.7257C267.591 56.7882 273.076 56.514 278.528 55.9048C279.405 55.6783 280.209 55.2323 280.866 54.6087C281.504 54.0038 281.965 53.2371 282.202 52.3903C282.805 49.2268 283.098 46.0122 283.077 42.7919C283.122 39.558 282.83 36.3282 282.204 33.1551V33.1568ZM257.927 48.7326V36.7726L268.862 42.7535L257.927 48.7326Z" fill="white"/>
<rect x="330" width="85" height="85" rx="10" fill="#5C3FBB"/>
<g clip-path="url(#clip0_1_1590)">
<path d="M386.169 31.1124C383.746 30.0199 381.149 29.2124 378.434 28.7532C378.41 28.7486 378.385 28.7516 378.362 28.7618C378.34 28.772 378.321 28.7889 378.309 28.8102C377.976 29.3945 377.606 30.156 377.346 30.7577C374.466 30.3274 371.538 30.3274 368.659 30.7577C368.369 30.0909 368.043 29.4407 367.682 28.8102C367.669 28.7886 367.651 28.7713 367.628 28.7606C367.606 28.7498 367.581 28.7462 367.557 28.75C364.843 29.2092 362.246 30.0167 359.822 31.1108C359.801 31.1195 359.783 31.1345 359.771 31.1535C354.844 38.3973 353.493 45.4621 354.157 52.4383C354.159 52.4554 354.164 52.4719 354.172 52.4869C354.181 52.5018 354.192 52.5149 354.206 52.5254C357.082 54.6192 360.29 56.2143 363.695 57.2437C363.719 57.251 363.744 57.251 363.768 57.2436C363.791 57.2363 363.812 57.222 363.828 57.2025C364.561 56.2226 365.21 55.1829 365.769 54.0945C365.777 54.0796 365.781 54.0632 365.782 54.0464C365.783 54.0297 365.78 54.0129 365.774 53.9973C365.768 53.9817 365.758 53.9676 365.746 53.9559C365.734 53.9443 365.72 53.9354 365.704 53.9298C364.681 53.5446 363.69 53.0798 362.74 52.5396C362.723 52.5299 362.709 52.516 362.698 52.4994C362.688 52.4827 362.682 52.4637 362.68 52.4441C362.679 52.4245 362.683 52.4048 362.691 52.387C362.699 52.3691 362.712 52.3535 362.727 52.3417C362.927 52.1945 363.126 52.0409 363.316 51.8873C363.333 51.8735 363.354 51.8647 363.376 51.8619C363.398 51.8591 363.42 51.8624 363.44 51.8715C369.658 54.6645 376.392 54.6645 382.536 51.8715C382.557 51.8619 382.579 51.8581 382.601 51.8606C382.623 51.8632 382.644 51.8718 382.662 51.8857C382.852 52.0409 383.049 52.1945 383.251 52.3417C383.266 52.3533 383.279 52.3686 383.288 52.3864C383.296 52.4041 383.3 52.4236 383.299 52.4432C383.298 52.4628 383.292 52.4819 383.282 52.4987C383.272 52.5155 383.258 52.5296 383.241 52.5396C382.294 53.0843 381.309 53.545 380.275 53.9282C380.26 53.934 380.245 53.9431 380.233 53.9549C380.221 53.9667 380.211 53.9809 380.205 53.9966C380.199 54.0124 380.196 54.0292 380.197 54.0461C380.198 54.063 380.203 54.0795 380.211 54.0945C380.781 55.1822 381.433 56.2177 382.15 57.201C382.165 57.2211 382.186 57.2362 382.21 57.2442C382.233 57.2521 382.259 57.2525 382.283 57.2453C385.694 56.2187 388.907 54.6229 391.786 52.5254C391.8 52.5156 391.812 52.5028 391.821 52.4881C391.83 52.4734 391.835 52.4569 391.837 52.4399C392.629 44.3744 390.51 37.3665 386.218 31.1567C386.207 31.1365 386.19 31.1208 386.169 31.1124ZM366.698 48.1902C364.827 48.1902 363.283 46.4976 363.283 44.4219C363.283 42.3445 364.797 40.6535 366.698 40.6535C368.614 40.6535 370.144 42.3588 370.114 44.4219C370.114 46.4992 368.6 48.1902 366.698 48.1902V48.1902ZM379.325 48.1902C377.452 48.1902 375.91 46.4976 375.91 44.4219C375.91 42.3445 377.422 40.6535 379.325 40.6535C381.241 40.6535 382.771 42.3588 382.741 44.4219C382.741 46.4992 381.243 48.1902 379.325 48.1902V48.1902Z" fill="white"/>
</g>
<rect x="440" width="85" height="85" rx="10" fill="#5C3FBB"/>
<path d="M500.4 43.2299C500.4 40.9299 498.56 39.0899 496.26 39.3199C495.34 39.3199 494.19 39.7799 493.5 40.4699C490.28 38.3999 486.6 37.0199 482.69 37.0199L484.53 28.2799L490.51 29.6599C490.51 31.2699 491.89 32.4199 493.5 32.4199C495.11 32.4199 496.26 31.0399 496.26 29.4299C496.26 27.8199 494.88 26.6699 493.27 26.6699C492.12 26.6699 491.2 27.3599 490.74 28.2799L484.3 26.6699H483.84C483.61 26.6699 483.61 26.8999 483.61 27.1299L481.31 37.0199C477.4 37.0199 473.72 38.1699 470.5 40.4699C468.89 38.8599 466.36 38.8599 464.75 40.4699C463.14 42.0799 463.14 44.6099 464.75 46.2199C464.98 46.4499 465.44 46.9099 465.9 46.9099V48.0599C465.9 54.2699 473.03 59.3299 482 59.3299C490.97 59.3299 498.1 54.2699 498.1 48.0599V46.9099C499.48 46.2199 500.4 44.8399 500.4 43.2299V43.2299ZM472.8 46.2199C472.8 44.6099 474.18 43.4599 475.56 43.4599C477.17 43.4599 478.32 44.8399 478.32 46.2199C478.32 47.5999 476.94 48.9799 475.56 48.9799C473.95 48.9799 472.8 47.8299 472.8 46.2199ZM488.9 53.8099C486.83 55.1899 484.53 56.1099 482 55.8799C479.47 55.8799 477.17 55.1899 475.1 53.8099C474.87 53.5799 474.87 53.1199 475.1 52.6599C475.33 52.4299 475.79 52.4299 476.02 52.6599C477.63 53.8099 479.7 54.4999 481.77 54.2699C483.84 54.4999 485.91 53.8099 487.52 52.6599C487.75 52.4299 488.21 52.4299 488.67 52.6599C489.13 52.8899 489.13 53.3499 488.9 53.8099ZM488.21 48.9799C486.6 48.9799 485.45 47.5999 485.45 46.2199C485.45 44.8399 486.83 43.4599 488.21 43.4599C489.82 43.4599 490.97 44.8399 490.97 46.2199C491.2 47.8299 489.82 48.9799 488.21 48.9799Z" fill="white"/>
<rect x="550" width="85" height="85" rx="10" fill="#5C3FBB"/>
<path d="M608.387 31.2086L611.5 28.2176V27.5625H600.719L593.036 46.7781L584.296 27.5625H572.993V28.2176L576.629 32.6152C576.984 32.9402 577.167 33.4176 577.121 33.8949V51.1758C577.233 51.8004 577.035 52.4352 576.598 52.8871L572.5 57.8789V58.5238H584.109V57.8687L580.016 52.8922C579.796 52.6695 579.631 52.3993 579.534 52.1025C579.436 51.8056 579.408 51.4902 579.452 51.1809V36.2309L589.644 58.534H590.827L599.592 36.2309V53.9992C599.592 54.4664 599.592 54.5629 599.287 54.8727L596.134 57.9348V58.5898H611.429V57.9348L608.387 54.9438C608.123 54.7406 607.986 54.4004 608.042 54.0703V32.082C608.016 31.9188 608.034 31.7516 608.094 31.5979C608.155 31.4442 608.256 31.3097 608.387 31.2086V31.2086Z" fill="white"/>
<rect x="660" width="85" height="85" rx="10" fill="#5C3FBB"/>
<g clip-path="url(#clip1_1_1590)">
<path fill-rule="evenodd" clip-rule="evenodd" d="M683 43.1117C683 53.055 690.222 61.3233 699.667 63V48.555H694.667V43H699.667V38.555C699.667 33.555 702.888 30.7783 707.445 30.7783C708.888 30.7783 710.445 31 711.888 31.2217V36.3333H709.333C706.888 36.3333 706.333 37.555 706.333 39.1117V43H711.667L710.778 48.555H706.333V63C715.778 61.3233 723 53.0567 723 43.1117C723 32.05 714 23 703 23C692 23 683 32.05 683 43.1117Z" fill="white"/>
</g>
<rect x="770" width="85" height="85" rx="10" fill="#5C3FBB"/>
<path fill-rule="evenodd" clip-rule="evenodd" d="M805.198 26.599C806.957 26.518 807.518 26.5 812 26.5C816.482 26.5 817.043 26.5195 818.801 26.599C820.559 26.6785 821.759 26.959 822.809 27.3655C823.908 27.781 824.906 28.4305 825.731 29.2705C826.571 30.094 827.219 31.09 827.633 32.191C828.041 33.241 828.32 34.441 828.401 36.196C828.482 37.9585 828.5 38.5195 828.5 43C828.5 47.482 828.481 48.043 828.401 49.8025C828.322 51.5575 828.041 52.7575 827.633 53.8075C827.219 54.9086 826.57 55.9063 825.731 56.731C824.906 57.571 823.908 58.219 822.809 58.633C821.759 59.041 820.559 59.32 818.804 59.401C817.043 59.482 816.482 59.5 812 59.5C807.518 59.5 806.957 59.4805 805.198 59.401C803.443 59.3215 802.243 59.041 801.193 58.633C800.091 58.2189 799.094 57.5699 798.269 56.731C797.43 55.907 796.78 54.9098 796.366 53.809C795.959 52.759 795.68 51.559 795.599 49.804C795.518 48.0415 795.5 47.4805 795.5 43C795.5 38.518 795.519 37.957 795.599 36.199C795.678 34.441 795.959 33.241 796.366 32.191C796.781 31.0901 797.431 30.093 798.27 29.269C799.094 28.4298 800.091 27.7802 801.191 27.3655C802.241 26.959 803.441 26.68 805.196 26.599H805.198ZM818.667 29.569C816.927 29.4895 816.406 29.473 812 29.473C807.594 29.473 807.072 29.4895 805.332 29.569C803.723 29.6425 802.85 29.911 802.268 30.1375C801.499 30.4375 800.948 30.793 800.371 31.3705C799.823 31.9031 799.402 32.5514 799.137 33.268C798.911 33.85 798.643 34.723 798.569 36.3325C798.49 38.0725 798.473 38.5945 798.473 43C798.473 47.4055 798.49 47.9275 798.569 49.6675C798.643 51.277 798.911 52.15 799.137 52.732C799.401 53.4475 799.823 54.097 800.371 54.6295C800.903 55.177 801.553 55.5985 802.268 55.8625C802.85 56.089 803.723 56.3575 805.332 56.431C807.072 56.5105 807.593 56.527 812 56.527C816.407 56.527 816.927 56.5105 818.667 56.431C820.277 56.3575 821.15 56.089 821.732 55.8625C822.502 55.5625 823.052 55.207 823.63 54.6295C824.177 54.097 824.599 53.4475 824.863 52.732C825.089 52.15 825.358 51.277 825.431 49.6675C825.511 47.9275 825.527 47.4055 825.527 43C825.527 38.5945 825.511 38.0725 825.431 36.3325C825.358 34.723 825.089 33.85 824.863 33.268C824.563 32.4985 824.207 31.948 823.63 31.3705C823.097 30.8231 822.449 30.4018 821.732 30.1375C821.15 29.911 820.277 29.6425 818.667 29.569V29.569ZM809.893 48.0865C811.069 48.5764 812.38 48.6426 813.6 48.2736C814.821 47.9046 815.875 47.1234 816.583 46.0634C817.292 45.0034 817.61 43.7303 817.484 42.4617C817.358 41.193 816.796 40.0075 815.893 39.1075C815.317 38.5322 814.621 38.0917 813.854 37.8177C813.088 37.5437 812.271 37.443 811.461 37.5229C810.651 37.6028 809.869 37.8613 809.171 38.2797C808.473 38.6981 807.876 39.2661 807.424 39.9428C806.972 40.6194 806.675 41.3879 806.556 42.1929C806.436 42.9979 806.497 43.8194 806.733 44.5983C806.969 45.3771 807.375 46.0939 807.921 46.6971C808.467 47.3003 809.141 47.7748 809.893 48.0865ZM806.003 37.003C806.791 36.2155 807.725 35.5908 808.754 35.1645C809.783 34.7383 810.886 34.519 812 34.519C813.114 34.519 814.217 34.7383 815.246 35.1645C816.275 35.5908 817.209 36.2155 817.997 37.003C818.785 37.7905 819.409 38.7255 819.835 39.7544C820.262 40.7834 820.481 41.8863 820.481 43C820.481 44.1137 820.262 45.2166 819.835 46.2456C819.409 47.2745 818.785 48.2095 817.997 48.997C816.406 50.5875 814.249 51.481 812 51.481C809.751 51.481 807.594 50.5875 806.003 48.997C804.412 47.4065 803.519 45.2493 803.519 43C803.519 40.7507 804.412 38.5935 806.003 37.003V37.003ZM822.362 35.782C822.557 35.5979 822.713 35.3765 822.821 35.131C822.93 34.8854 822.987 34.6207 822.991 34.3524C822.995 34.0841 822.945 33.8178 822.844 33.5692C822.743 33.3206 822.594 33.0948 822.404 32.9051C822.214 32.7154 821.988 32.5656 821.74 32.4648C821.491 32.3639 821.225 32.314 820.957 32.3179C820.688 32.3218 820.424 32.3795 820.178 32.4875C819.932 32.5956 819.711 32.7518 819.527 32.947C819.169 33.3265 818.973 33.8307 818.981 34.3524C818.988 34.8741 819.199 35.3723 819.568 35.7413C819.937 36.1102 820.435 36.3208 820.957 36.3284C821.478 36.3361 821.982 36.14 822.362 35.782V35.782Z" fill="white"/>
<defs>
<clipPath id="clip0_1_1590">
<rect width="38" height="38" fill="white" transform="translate(354 24)"/>
</clipPath>
<clipPath id="clip1_1_1590">
<rect width="40" height="40" fill="white" transform="translate(683 23)"/>
</clipPath>
</defs>
</svg>
