<svg width="469" height="1716" viewBox="0 0 469 1716" fill="none" xmlns="http://www.w3.org/2000/svg">
<path d="M468.917 1446.73C468.917 1448.26 467.9 1449.28 466.374 1449.28H466.12C464.594 1449.28 463.577 1448.26 463.577 1446.73C463.577 1445.21 464.594 1444.19 466.12 1444.19C467.645 1444.19 468.917 1445.46 468.917 1446.73Z" fill="#949494"/>
<path d="M452.895 1446.73C452.895 1448.26 451.878 1449.28 450.353 1449.28H449.844C448.318 1449.28 447.301 1448.26 447.301 1446.73C447.301 1445.21 448.318 1444.19 449.844 1444.19H450.353C451.624 1444.19 452.895 1445.46 452.895 1446.73ZM436.367 1446.73C436.367 1448.26 435.35 1449.28 433.824 1449.28H433.315C431.789 1449.28 430.772 1448.26 430.772 1446.73C430.772 1445.21 431.789 1444.19 433.315 1444.19H433.824C435.095 1444.19 436.367 1445.46 436.367 1446.73ZM419.838 1446.73C419.838 1448.26 418.821 1449.28 417.295 1449.28H416.786C415.261 1449.28 414.244 1448.26 414.244 1446.73C414.244 1445.21 415.261 1444.19 416.786 1444.19H417.295C418.821 1444.19 419.838 1445.46 419.838 1446.73ZM403.309 1446.73C403.309 1448.26 402.292 1449.28 400.766 1449.28H400.258C398.732 1449.28 397.715 1448.26 397.715 1446.73C397.715 1445.21 398.732 1444.19 400.258 1444.19H400.766C402.292 1444.19 403.309 1445.46 403.309 1446.73ZM386.78 1446.73C386.78 1448.26 385.763 1449.28 384.237 1449.28H383.729C382.203 1449.28 381.186 1448.26 381.186 1446.73C381.186 1445.21 382.203 1444.19 383.729 1444.19H384.237C385.763 1444.19 386.78 1445.46 386.78 1446.73ZM370.506 1446.73C370.506 1448.26 369.489 1449.28 367.963 1449.28H367.454C365.929 1449.28 364.912 1448.26 364.912 1446.73C364.912 1445.21 365.929 1444.19 367.454 1444.19H367.963C369.234 1444.19 370.506 1445.46 370.506 1446.73ZM353.977 1446.73C353.977 1448.26 352.96 1449.28 351.434 1449.28H350.926C349.4 1449.28 348.383 1448.26 348.383 1446.73C348.383 1445.21 349.4 1444.19 350.926 1444.19H351.434C352.706 1444.19 353.977 1445.46 353.977 1446.73ZM337.448 1446.73C337.448 1448.26 336.431 1449.28 334.905 1449.28H334.397C332.871 1449.28 331.854 1448.26 331.854 1446.73C331.854 1445.21 332.871 1444.19 334.397 1444.19H334.905C336.431 1444.19 337.448 1445.46 337.448 1446.73ZM320.92 1446.73C320.92 1448.26 319.902 1449.28 318.377 1449.28H317.868C316.342 1449.28 315.325 1448.26 315.325 1446.73C315.325 1445.21 316.342 1444.19 317.868 1444.19H318.377C319.902 1444.19 320.92 1445.46 320.92 1446.73Z" fill="#949494"/>
<path d="M304.391 1446.73C304.391 1448.26 303.374 1449.28 301.848 1449.28H301.594C300.068 1449.28 299.051 1448.26 299.051 1446.73C299.051 1445.21 300.068 1444.19 301.594 1444.19C303.12 1444.19 304.391 1445.46 304.391 1446.73Z" fill="#949494"/>
<path d="M5.3474 1152.27C5.3474 1153.79 4.33025 1154.81 2.80452 1154.81H2.55021C1.02448 1154.81 0.00732422 1153.79 0.00732422 1152.27C0.00732422 1150.74 1.02448 1149.72 2.55021 1149.72H2.80452C4.33025 1149.72 5.3474 1151 5.3474 1152.27Z" fill="#949494"/>
<path d="M153.597 1152.27C153.597 1153.79 152.58 1154.81 151.055 1154.81H150.546C149.02 1154.81 148.003 1153.79 148.003 1152.27C148.003 1150.74 149.02 1149.72 150.546 1149.72H151.055C152.58 1149.72 153.597 1151 153.597 1152.27ZM137.323 1152.27C137.323 1153.79 136.306 1154.81 134.78 1154.81H134.272C132.746 1154.81 131.729 1153.79 131.729 1152.27C131.729 1150.74 132.746 1149.72 134.272 1149.72H134.78C136.052 1149.72 137.323 1151 137.323 1152.27ZM120.794 1152.27C120.794 1153.79 119.777 1154.81 118.251 1154.81H117.743C116.217 1154.81 115.2 1153.79 115.2 1152.27C115.2 1150.74 116.217 1149.72 117.743 1149.72H118.251C119.523 1149.72 120.794 1151 120.794 1152.27ZM104.265 1152.27C104.265 1153.79 103.248 1154.81 101.723 1154.81H101.214C99.6882 1154.81 98.6711 1153.79 98.6711 1152.27C98.6711 1150.74 99.6882 1149.72 101.214 1149.72H101.723C103.248 1149.72 104.265 1151 104.265 1152.27ZM87.7367 1152.27C87.7367 1153.79 86.7195 1154.81 85.1938 1154.81H84.6852C83.1595 1154.81 82.1423 1153.79 82.1423 1152.27C82.1423 1150.74 83.1595 1149.72 84.6852 1149.72H85.1938C86.7195 1149.72 87.7367 1151 87.7367 1152.27ZM71.2079 1152.27C71.2079 1153.79 70.1907 1154.81 68.665 1154.81H68.1564C66.6307 1154.81 65.6135 1153.79 65.6135 1152.27C65.6135 1150.74 66.6307 1149.72 68.1564 1149.72H68.665C70.1907 1149.72 71.2079 1151 71.2079 1152.27ZM54.9334 1152.27C54.9334 1153.79 53.9163 1154.81 52.3905 1154.81H51.8819C50.3562 1154.81 49.339 1153.79 49.339 1152.27C49.339 1150.74 50.3562 1149.72 51.8819 1149.72H52.3905C53.662 1149.72 54.9334 1151 54.9334 1152.27ZM38.4047 1152.27C38.4047 1153.79 37.3875 1154.81 35.8618 1154.81H35.3532C33.8274 1154.81 32.8103 1153.79 32.8103 1152.27C32.8103 1150.74 33.8274 1149.72 35.3532 1149.72H35.8618C37.1332 1149.72 38.4047 1151 38.4047 1152.27ZM21.8759 1152.27C21.8759 1153.79 20.8587 1154.81 19.333 1154.81H18.8244C17.2986 1154.81 16.2815 1153.79 16.2815 1152.27C16.2815 1150.74 17.2986 1149.72 18.8244 1149.72H19.333C20.8587 1149.72 21.8759 1151 21.8759 1152.27Z" fill="#949494"/>
<path d="M169.873 1152.27C169.873 1153.79 168.856 1154.81 167.33 1154.81H167.076C165.55 1154.81 164.533 1153.79 164.533 1152.27C164.533 1150.74 165.55 1149.72 167.076 1149.72H167.33C168.856 1149.72 169.873 1151 169.873 1152.27Z" fill="#949494"/>
<path d="M5.3474 563.334C5.3474 564.859 4.33025 565.876 2.80452 565.876H2.55021C1.02448 565.876 0.00732422 564.859 0.00732422 563.334C0.00732422 561.808 1.02448 560.791 2.55021 560.791H2.80452C4.33025 560.791 5.3474 561.808 5.3474 563.334Z" fill="#949494"/>
<path d="M153.597 563.334C153.597 564.859 152.58 565.876 151.055 565.876H150.546C149.02 565.876 148.003 564.859 148.003 563.334C148.003 561.808 149.02 560.791 150.546 560.791H151.055C152.58 560.791 153.597 561.808 153.597 563.334ZM137.323 563.334C137.323 564.859 136.306 565.876 134.78 565.876H134.272C132.746 565.876 131.729 564.859 131.729 563.334C131.729 561.808 132.746 560.791 134.272 560.791H134.78C136.052 560.791 137.323 561.808 137.323 563.334ZM120.794 563.334C120.794 564.859 119.777 565.876 118.251 565.876H117.743C116.217 565.876 115.2 564.859 115.2 563.334C115.2 561.808 116.217 560.791 117.743 560.791H118.251C119.523 560.791 120.794 561.808 120.794 563.334ZM104.265 563.334C104.265 564.859 103.248 565.876 101.723 565.876H101.214C99.6882 565.876 98.6711 564.859 98.6711 563.334C98.6711 561.808 99.6882 560.791 101.214 560.791H101.723C103.248 560.791 104.265 561.808 104.265 563.334ZM87.7367 563.334C87.7367 564.859 86.7195 565.876 85.1938 565.876H84.6852C83.1595 565.876 82.1423 564.859 82.1423 563.334C82.1423 561.808 83.1595 560.791 84.6852 560.791H85.1938C86.7195 560.791 87.7367 561.808 87.7367 563.334ZM71.2079 563.334C71.2079 564.859 70.1907 565.876 68.665 565.876H68.1564C66.6307 565.876 65.6135 564.859 65.6135 563.334C65.6135 561.808 66.6307 560.791 68.1564 560.791H68.665C70.1907 560.791 71.2079 561.808 71.2079 563.334ZM54.9334 563.334C54.9334 564.859 53.9163 565.876 52.3905 565.876H51.8819C50.3562 565.876 49.339 564.859 49.339 563.334C49.339 561.808 50.3562 560.791 51.8819 560.791H52.3905C53.662 560.791 54.9334 561.808 54.9334 563.334ZM38.4047 563.334C38.4047 564.859 37.3875 565.876 35.8618 565.876H35.3532C33.8274 565.876 32.8103 564.859 32.8103 563.334C32.8103 561.808 33.8274 560.791 35.3532 560.791H35.8618C37.1332 560.791 38.4047 561.808 38.4047 563.334ZM21.8759 563.334C21.8759 564.859 20.8587 565.876 19.333 565.876H18.8244C17.2986 565.876 16.2815 564.859 16.2815 563.334C16.2815 561.808 17.2986 560.791 18.8244 560.791H19.333C20.8587 560.791 21.8759 561.808 21.8759 563.334Z" fill="#949494"/>
<path d="M169.873 563.334C169.873 564.859 168.856 565.876 167.33 565.876H167.076C165.55 565.876 164.533 564.859 164.533 563.334C164.533 561.808 165.55 560.791 167.076 560.791H167.33C168.856 560.791 169.873 561.808 169.873 563.334Z" fill="#949494"/>
<path d="M468.917 857.8C468.917 859.326 467.9 860.343 466.374 860.343H466.12C464.594 860.343 463.577 859.326 463.577 857.8C463.577 856.274 464.594 855.257 466.12 855.257C467.645 855.257 468.917 856.274 468.917 857.8Z" fill="#949494"/>
<path d="M452.895 857.8C452.895 859.326 451.878 860.343 450.353 860.343H449.844C448.318 860.343 447.301 859.326 447.301 857.8C447.301 856.274 448.318 855.257 449.844 855.257H450.353C451.624 855.257 452.895 856.274 452.895 857.8ZM436.367 857.8C436.367 859.326 435.35 860.343 433.824 860.343H433.315C431.789 860.343 430.772 859.326 430.772 857.8C430.772 856.274 431.789 855.257 433.315 855.257H433.824C435.095 855.257 436.367 856.274 436.367 857.8ZM419.838 857.8C419.838 859.326 418.821 860.343 417.295 860.343H416.786C415.261 860.343 414.244 859.326 414.244 857.8C414.244 856.274 415.261 855.257 416.786 855.257H417.295C418.821 855.257 419.838 856.274 419.838 857.8ZM403.309 857.8C403.309 859.326 402.292 860.343 400.766 860.343H400.258C398.732 860.343 397.715 859.326 397.715 857.8C397.715 856.274 398.732 855.257 400.258 855.257H400.766C402.292 855.257 403.309 856.274 403.309 857.8ZM386.78 857.8C386.78 859.326 385.763 860.343 384.237 860.343H383.729C382.203 860.343 381.186 859.326 381.186 857.8C381.186 856.274 382.203 855.257 383.729 855.257H384.237C385.763 855.257 386.78 856.274 386.78 857.8ZM370.506 857.8C370.506 859.326 369.489 860.343 367.963 860.343H367.454C365.929 860.343 364.912 859.326 364.912 857.8C364.912 856.274 365.929 855.257 367.454 855.257H367.963C369.234 855.257 370.506 856.274 370.506 857.8ZM353.977 857.8C353.977 859.326 352.96 860.343 351.434 860.343H350.926C349.4 860.343 348.383 859.326 348.383 857.8C348.383 856.274 349.4 855.257 350.926 855.257H351.434C352.706 855.257 353.977 856.274 353.977 857.8ZM337.448 857.8C337.448 859.326 336.431 860.343 334.905 860.343H334.397C332.871 860.343 331.854 859.326 331.854 857.8C331.854 856.274 332.871 855.257 334.397 855.257H334.905C336.431 855.257 337.448 856.274 337.448 857.8ZM320.92 857.8C320.92 859.326 319.902 860.343 318.377 860.343H317.868C316.342 860.343 315.325 859.326 315.325 857.8C315.325 856.274 316.342 855.257 317.868 855.257H318.377C319.902 855.257 320.92 856.274 320.92 857.8Z" fill="#949494"/>
<path d="M304.391 857.8C304.391 859.326 303.374 860.343 301.848 860.343H301.594C300.068 860.343 299.051 859.326 299.051 857.8C299.051 856.274 300.068 855.257 301.594 855.257C303.12 855.257 304.391 856.274 304.391 857.8Z" fill="#949494"/>
<path d="M468.917 268.867C468.917 270.393 467.9 271.41 466.374 271.41H466.12C464.594 271.41 463.577 270.393 463.577 268.867C463.577 267.342 464.594 266.324 466.12 266.324C467.645 266.324 468.917 267.342 468.917 268.867Z" fill="#949494"/>
<path d="M452.895 268.867C452.895 270.393 451.878 271.41 450.353 271.41H449.844C448.318 271.41 447.301 270.393 447.301 268.867C447.301 267.342 448.318 266.324 449.844 266.324H450.353C451.624 266.324 452.895 267.342 452.895 268.867ZM436.367 268.867C436.367 270.393 435.35 271.41 433.824 271.41H433.315C431.789 271.41 430.772 270.393 430.772 268.867C430.772 267.342 431.789 266.324 433.315 266.324H433.824C435.095 266.324 436.367 267.342 436.367 268.867ZM419.838 268.867C419.838 270.393 418.821 271.41 417.295 271.41H416.786C415.261 271.41 414.244 270.393 414.244 268.867C414.244 267.342 415.261 266.324 416.786 266.324H417.295C418.821 266.324 419.838 267.342 419.838 268.867ZM403.309 268.867C403.309 270.393 402.292 271.41 400.766 271.41H400.258C398.732 271.41 397.715 270.393 397.715 268.867C397.715 267.342 398.732 266.324 400.258 266.324H400.766C402.292 266.324 403.309 267.342 403.309 268.867ZM386.78 268.867C386.78 270.393 385.763 271.41 384.237 271.41H383.729C382.203 271.41 381.186 270.393 381.186 268.867C381.186 267.342 382.203 266.324 383.729 266.324H384.237C385.763 266.324 386.78 267.342 386.78 268.867ZM370.506 268.867C370.506 270.393 369.489 271.41 367.963 271.41H367.454C365.929 271.41 364.912 270.393 364.912 268.867C364.912 267.342 365.929 266.324 367.454 266.324H367.963C369.234 266.324 370.506 267.342 370.506 268.867ZM353.977 268.867C353.977 270.393 352.96 271.41 351.434 271.41H350.926C349.4 271.41 348.383 270.393 348.383 268.867C348.383 267.342 349.4 266.324 350.926 266.324H351.434C352.706 266.324 353.977 267.342 353.977 268.867ZM337.448 268.867C337.448 270.393 336.431 271.41 334.905 271.41H334.397C332.871 271.41 331.854 270.393 331.854 268.867C331.854 267.342 332.871 266.324 334.397 266.324H334.905C336.431 266.324 337.448 267.342 337.448 268.867ZM320.92 268.867C320.92 270.393 319.902 271.41 318.377 271.41H317.868C316.342 271.41 315.325 270.393 315.325 268.867C315.325 267.342 316.342 266.324 317.868 266.324H318.377C319.902 266.324 320.92 267.342 320.92 268.867Z" fill="#949494"/>
<path d="M304.391 268.867C304.391 270.393 303.374 271.41 301.848 271.41H301.594C300.068 271.41 299.051 270.393 299.051 268.867C299.051 267.342 300.068 266.324 301.594 266.324C303.12 266.324 304.391 267.342 304.391 268.867Z" fill="#949494"/>
<path opacity="0.6" d="M149.53 12.7981V80.9475C149.53 88.3219 153.598 95.1876 159.955 99.002L198.862 121.379L285.066 171.22C295.237 177.069 301.594 188.003 301.594 199.955V337.525C301.594 349.476 295.237 360.411 285.066 366.26L165.804 435.172L149.275 444.835L148.004 445.598C137.832 451.446 131.475 462.381 131.475 474.332L131.475 652.843C131.475 664.795 137.832 675.729 148.004 681.578L149.275 682.341L165.55 691.749H165.804L284.811 760.407C294.983 766.256 301.34 777.19 301.34 789.142V926.458C301.34 938.409 294.983 949.344 284.811 955.192L149.275 1033.51L148.004 1034.28C137.832 1040.12 131.475 1051.06 131.475 1062.76V1241.78C131.475 1253.47 137.832 1264.41 148.004 1270.26L149.275 1271.02L165.804 1280.43L285.066 1349.34C295.237 1355.19 301.594 1366.12 301.594 1378.07V1515.65C301.594 1527.6 295.237 1538.53 285.066 1544.38L166.058 1613.04L159.955 1616.6C153.598 1620.41 149.53 1627.28 149.53 1634.65V1702.8C149.53 1709.67 155.124 1715.26 161.99 1715.26H172.924C179.79 1715.26 185.384 1709.67 185.384 1702.8V1643.04L320.92 1564.72C331.092 1558.87 337.449 1547.94 337.449 1535.99V1357.48C337.449 1345.53 331.092 1334.59 320.92 1328.74L319.649 1327.98L303.12 1318.32L184.113 1249.66C173.941 1243.81 167.584 1232.88 167.584 1220.92V1083.35C167.584 1071.66 173.941 1060.47 184.113 1054.62L303.374 985.707L319.649 976.298L320.92 975.535C331.092 969.687 337.449 958.752 337.449 946.801V768.29C337.449 756.593 331.092 745.404 320.92 739.555L319.649 738.793L303.374 729.384L303.12 729.13L183.604 660.217C173.687 654.114 167.584 643.434 167.584 631.991V494.421C167.584 482.724 173.941 471.789 184.113 465.686L303.12 397.028C303.12 397.028 303.12 397.028 303.374 397.028L319.903 387.62L321.175 386.857C331.346 381.008 337.703 370.074 337.703 358.376V179.611C337.703 167.66 331.346 156.725 321.175 150.877L185.384 72.5559V12.7981C185.384 5.9323 179.79 0.337891 172.924 0.337891H161.99C155.124 0.337891 149.53 5.9323 149.53 12.7981Z" fill="url(#paint0_linear_1_1268)"/>
<g opacity="0.26">
<path d="M274.138 1535.24L274.131 1535.24L164.256 1598.6C164.255 1598.6 164.253 1598.6 164.252 1598.6C155.344 1603.79 144.435 1603.81 135.739 1598.6L25.8685 1535.24L25.8623 1535.24C16.9571 1530.05 11.5 1520.64 11.5 1510.48L11.5 1383.52C11.5 1373.36 16.9571 1363.95 25.8623 1358.76L25.8685 1358.76L135.744 1295.4C135.746 1295.4 135.748 1295.4 135.75 1295.4M274.138 1535.24L163.5 1296.7C155.283 1291.77 144.952 1291.77 136.5 1296.7L135.75 1295.4M274.138 1535.24C283.043 1530.05 288.5 1520.64 288.5 1510.48V1383.52C288.5 1373.36 283.043 1363.95 274.138 1358.76L274.131 1358.76L164.272 1295.41C164.268 1295.41 164.264 1295.41 164.261 1295.4M274.138 1535.24L164.261 1295.4M135.75 1295.4C144.658 1290.21 155.565 1290.19 164.261 1295.4M135.75 1295.4L164.261 1295.4" fill="#3190B9"/>
<path d="M274.138 1535.24L274.131 1535.24L164.256 1598.6C164.255 1598.6 164.253 1598.6 164.252 1598.6C155.344 1603.79 144.435 1603.81 135.739 1598.6L25.8685 1535.24L25.8623 1535.24C16.9571 1530.05 11.5 1520.64 11.5 1510.48L11.5 1383.52C11.5 1373.36 16.9571 1363.95 25.8623 1358.76L25.8685 1358.76L135.744 1295.4C135.746 1295.4 135.748 1295.4 135.75 1295.4M274.138 1535.24L163.5 1296.7C155.283 1291.77 144.952 1291.77 136.5 1296.7L135.75 1295.4M274.138 1535.24C283.043 1530.05 288.5 1520.64 288.5 1510.48V1383.52C288.5 1373.36 283.043 1363.95 274.138 1358.76L274.131 1358.76L164.272 1295.41C164.268 1295.41 164.264 1295.41 164.261 1295.4M274.138 1535.24L164.261 1295.4M135.75 1295.4C144.658 1290.21 155.565 1290.19 164.261 1295.4M135.75 1295.4L164.261 1295.4" stroke="url(#paint1_linear_1_1268)" stroke-width="3"/>
<path d="M274.138 1535.24L274.131 1535.24L164.256 1598.6C164.255 1598.6 164.253 1598.6 164.252 1598.6C155.344 1603.79 144.435 1603.81 135.739 1598.6L25.8685 1535.24L25.8623 1535.24C16.9571 1530.05 11.5 1520.64 11.5 1510.48L11.5 1383.52C11.5 1373.36 16.9571 1363.95 25.8623 1358.76L25.8685 1358.76L135.744 1295.4C135.746 1295.4 135.748 1295.4 135.75 1295.4M274.138 1535.24L163.5 1296.7C155.283 1291.77 144.952 1291.77 136.5 1296.7L135.75 1295.4M274.138 1535.24C283.043 1530.05 288.5 1520.64 288.5 1510.48V1383.52C288.5 1373.36 283.043 1363.95 274.138 1358.76L274.131 1358.76L164.272 1295.41C164.268 1295.41 164.264 1295.41 164.261 1295.4M274.138 1535.24L164.261 1295.4M135.75 1295.4C144.658 1290.21 155.565 1290.19 164.261 1295.4M135.75 1295.4L164.261 1295.4" stroke="url(#paint2_linear_1_1268)" stroke-width="3"/>
</g>
<g opacity="0.26">
<path d="M274.138 946.24L274.131 946.243L164.256 1009.6C164.255 1009.6 164.253 1009.6 164.252 1009.6C155.344 1014.79 144.435 1014.81 135.739 1009.6L25.8685 946.243L25.8623 946.24C16.9571 941.048 11.5 931.642 11.5 921.477L11.5 794.523C11.5 784.358 16.9571 774.952 25.8623 769.76L25.8685 769.757L135.744 706.4C135.746 706.399 135.748 706.398 135.75 706.397M274.138 946.24L163.5 707.696C155.283 702.768 144.952 702.768 136.5 707.696L135.75 706.397M274.138 946.24C283.043 941.048 288.5 931.642 288.5 921.477V794.523C288.5 784.358 283.043 774.952 274.138 769.76L274.131 769.757L164.272 706.41C164.268 706.407 164.264 706.405 164.261 706.403M274.138 946.24L164.261 706.403M135.75 706.397C144.658 701.206 155.565 701.194 164.261 706.403M135.75 706.397L164.261 706.403" fill="#3190B9"/>
<path d="M274.138 946.24L274.131 946.243L164.256 1009.6C164.255 1009.6 164.253 1009.6 164.252 1009.6C155.344 1014.79 144.435 1014.81 135.739 1009.6L25.8685 946.243L25.8623 946.24C16.9571 941.048 11.5 931.642 11.5 921.477L11.5 794.523C11.5 784.358 16.9571 774.952 25.8623 769.76L25.8685 769.757L135.744 706.4C135.746 706.399 135.748 706.398 135.75 706.397M274.138 946.24L163.5 707.696C155.283 702.768 144.952 702.768 136.5 707.696L135.75 706.397M274.138 946.24C283.043 941.048 288.5 931.642 288.5 921.477V794.523C288.5 784.358 283.043 774.952 274.138 769.76L274.131 769.757L164.272 706.41C164.268 706.407 164.264 706.405 164.261 706.403M274.138 946.24L164.261 706.403M135.75 706.397C144.658 701.206 155.565 701.194 164.261 706.403M135.75 706.397L164.261 706.403" stroke="url(#paint3_linear_1_1268)" stroke-width="3"/>
<path d="M274.138 946.24L274.131 946.243L164.256 1009.6C164.255 1009.6 164.253 1009.6 164.252 1009.6C155.344 1014.79 144.435 1014.81 135.739 1009.6L25.8685 946.243L25.8623 946.24C16.9571 941.048 11.5 931.642 11.5 921.477L11.5 794.523C11.5 784.358 16.9571 774.952 25.8623 769.76L25.8685 769.757L135.744 706.4C135.746 706.399 135.748 706.398 135.75 706.397M274.138 946.24L163.5 707.696C155.283 702.768 144.952 702.768 136.5 707.696L135.75 706.397M274.138 946.24C283.043 941.048 288.5 931.642 288.5 921.477V794.523C288.5 784.358 283.043 774.952 274.138 769.76L274.131 769.757L164.272 706.41C164.268 706.407 164.264 706.405 164.261 706.403M274.138 946.24L164.261 706.403M135.75 706.397C144.658 701.206 155.565 701.194 164.261 706.403M135.75 706.397L164.261 706.403" stroke="url(#paint4_linear_1_1268)" stroke-width="3"/>
</g>
<g opacity="0.26">
<path d="M440.138 1239.24L440.131 1239.24L330.256 1302.6C330.255 1302.6 330.253 1302.6 330.252 1302.6C321.344 1307.79 310.435 1307.81 301.739 1302.6L191.869 1239.24L191.862 1239.24C182.957 1234.05 177.5 1224.64 177.5 1214.48V1087.52C177.5 1077.36 182.957 1067.95 191.862 1062.76L191.869 1062.76L301.744 999.4C301.746 999.399 301.748 999.398 301.75 999.397M440.138 1239.24L329.5 1000.7C321.283 995.768 310.952 995.768 302.5 1000.7L301.75 999.397M440.138 1239.24C449.043 1234.05 454.5 1224.64 454.5 1214.48V1087.52C454.5 1077.36 449.043 1067.95 440.138 1062.76L440.131 1062.76L330.272 999.41C330.268 999.407 330.264 999.405 330.261 999.403M440.138 1239.24L330.261 999.403M301.75 999.397C310.658 994.206 321.565 994.194 330.261 999.403M301.75 999.397L330.261 999.403" fill="#3190B9"/>
<path d="M440.138 1239.24L440.131 1239.24L330.256 1302.6C330.255 1302.6 330.253 1302.6 330.252 1302.6C321.344 1307.79 310.435 1307.81 301.739 1302.6L191.869 1239.24L191.862 1239.24C182.957 1234.05 177.5 1224.64 177.5 1214.48V1087.52C177.5 1077.36 182.957 1067.95 191.862 1062.76L191.869 1062.76L301.744 999.4C301.746 999.399 301.748 999.398 301.75 999.397M440.138 1239.24L329.5 1000.7C321.283 995.768 310.952 995.768 302.5 1000.7L301.75 999.397M440.138 1239.24C449.043 1234.05 454.5 1224.64 454.5 1214.48V1087.52C454.5 1077.36 449.043 1067.95 440.138 1062.76L440.131 1062.76L330.272 999.41C330.268 999.407 330.264 999.405 330.261 999.403M440.138 1239.24L330.261 999.403M301.75 999.397C310.658 994.206 321.565 994.194 330.261 999.403M301.75 999.397L330.261 999.403" stroke="url(#paint5_linear_1_1268)" stroke-width="3"/>
<path d="M440.138 1239.24L440.131 1239.24L330.256 1302.6C330.255 1302.6 330.253 1302.6 330.252 1302.6C321.344 1307.79 310.435 1307.81 301.739 1302.6L191.869 1239.24L191.862 1239.24C182.957 1234.05 177.5 1224.64 177.5 1214.48V1087.52C177.5 1077.36 182.957 1067.95 191.862 1062.76L191.869 1062.76L301.744 999.4C301.746 999.399 301.748 999.398 301.75 999.397M440.138 1239.24L329.5 1000.7C321.283 995.768 310.952 995.768 302.5 1000.7L301.75 999.397M440.138 1239.24C449.043 1234.05 454.5 1224.64 454.5 1214.48V1087.52C454.5 1077.36 449.043 1067.95 440.138 1062.76L440.131 1062.76L330.272 999.41C330.268 999.407 330.264 999.405 330.261 999.403M440.138 1239.24L330.261 999.403M301.75 999.397C310.658 994.206 321.565 994.194 330.261 999.403M301.75 999.397L330.261 999.403" stroke="url(#paint6_linear_1_1268)" stroke-width="3"/>
</g>
<g opacity="0.26">
<path d="M440.138 651.24L440.131 651.243L330.256 714.6C330.255 714.601 330.253 714.601 330.252 714.602C321.344 719.794 310.435 719.806 301.739 714.597L191.869 651.243L191.862 651.24C182.957 646.048 177.5 636.642 177.5 626.477V499.523C177.5 489.358 182.957 479.952 191.862 474.76L191.869 474.757L301.744 411.4C301.746 411.399 301.748 411.398 301.75 411.397M440.138 651.24L329.5 412.696C321.283 407.768 310.952 407.768 302.5 412.696L301.75 411.397M440.138 651.24C449.043 646.048 454.5 636.642 454.5 626.477V499.523C454.5 489.358 449.043 479.952 440.138 474.76L440.131 474.757L330.272 411.41C330.268 411.407 330.264 411.405 330.261 411.403M440.138 651.24L330.261 411.403M301.75 411.397C310.658 406.206 321.565 406.194 330.261 411.403M301.75 411.397L330.261 411.403" fill="#3190B9"/>
<path d="M440.138 651.24L440.131 651.243L330.256 714.6C330.255 714.601 330.253 714.601 330.252 714.602C321.344 719.794 310.435 719.806 301.739 714.597L191.869 651.243L191.862 651.24C182.957 646.048 177.5 636.642 177.5 626.477V499.523C177.5 489.358 182.957 479.952 191.862 474.76L191.869 474.757L301.744 411.4C301.746 411.399 301.748 411.398 301.75 411.397M440.138 651.24L329.5 412.696C321.283 407.768 310.952 407.768 302.5 412.696L301.75 411.397M440.138 651.24C449.043 646.048 454.5 636.642 454.5 626.477V499.523C454.5 489.358 449.043 479.952 440.138 474.76L440.131 474.757L330.272 411.41C330.268 411.407 330.264 411.405 330.261 411.403M440.138 651.24L330.261 411.403M301.75 411.397C310.658 406.206 321.565 406.194 330.261 411.403M301.75 411.397L330.261 411.403" stroke="url(#paint7_linear_1_1268)" stroke-width="3"/>
<path d="M440.138 651.24L440.131 651.243L330.256 714.6C330.255 714.601 330.253 714.601 330.252 714.602C321.344 719.794 310.435 719.806 301.739 714.597L191.869 651.243L191.862 651.24C182.957 646.048 177.5 636.642 177.5 626.477V499.523C177.5 489.358 182.957 479.952 191.862 474.76L191.869 474.757L301.744 411.4C301.746 411.399 301.748 411.398 301.75 411.397M440.138 651.24L329.5 412.696C321.283 407.768 310.952 407.768 302.5 412.696L301.75 411.397M440.138 651.24C449.043 646.048 454.5 636.642 454.5 626.477V499.523C454.5 489.358 449.043 479.952 440.138 474.76L440.131 474.757L330.272 411.41C330.268 411.407 330.264 411.405 330.261 411.403M440.138 651.24L330.261 411.403M301.75 411.397C310.658 406.206 321.565 406.194 330.261 411.403M301.75 411.397L330.261 411.403" stroke="url(#paint8_linear_1_1268)" stroke-width="3"/>
</g>
<g opacity="0.26">
<path d="M274.138 357.24L274.131 357.243L164.256 420.6C164.255 420.601 164.253 420.601 164.252 420.602C155.344 425.794 144.435 425.806 135.739 420.597L25.8685 357.243L25.8623 357.24C16.9571 352.048 11.5 342.642 11.5 332.477L11.5 205.523C11.5 195.358 16.9571 185.952 25.8623 180.76L25.8685 180.757L135.744 117.4C135.746 117.399 135.748 117.398 135.75 117.397M274.138 357.24L163.5 118.696C155.283 113.768 144.952 113.768 136.5 118.696L135.75 117.397M274.138 357.24C283.043 352.048 288.5 342.642 288.5 332.477V205.523C288.5 195.358 283.043 185.952 274.138 180.76L274.131 180.757L164.272 117.41C164.268 117.407 164.264 117.405 164.261 117.403M274.138 357.24L164.261 117.403M135.75 117.397C144.658 112.206 155.565 112.194 164.261 117.403M135.75 117.397L164.261 117.403" fill="#3190B9"/>
<path d="M274.138 357.24L274.131 357.243L164.256 420.6C164.255 420.601 164.253 420.601 164.252 420.602C155.344 425.794 144.435 425.806 135.739 420.597L25.8685 357.243L25.8623 357.24C16.9571 352.048 11.5 342.642 11.5 332.477L11.5 205.523C11.5 195.358 16.9571 185.952 25.8623 180.76L25.8685 180.757L135.744 117.4C135.746 117.399 135.748 117.398 135.75 117.397M274.138 357.24L163.5 118.696C155.283 113.768 144.952 113.768 136.5 118.696L135.75 117.397M274.138 357.24C283.043 352.048 288.5 342.642 288.5 332.477V205.523C288.5 195.358 283.043 185.952 274.138 180.76L274.131 180.757L164.272 117.41C164.268 117.407 164.264 117.405 164.261 117.403M274.138 357.24L164.261 117.403M135.75 117.397C144.658 112.206 155.565 112.194 164.261 117.403M135.75 117.397L164.261 117.403" stroke="url(#paint9_linear_1_1268)" stroke-width="3"/>
<path d="M274.138 357.24L274.131 357.243L164.256 420.6C164.255 420.601 164.253 420.601 164.252 420.602C155.344 425.794 144.435 425.806 135.739 420.597L25.8685 357.243L25.8623 357.24C16.9571 352.048 11.5 342.642 11.5 332.477L11.5 205.523C11.5 195.358 16.9571 185.952 25.8623 180.76L25.8685 180.757L135.744 117.4C135.746 117.399 135.748 117.398 135.75 117.397M274.138 357.24L163.5 118.696C155.283 113.768 144.952 113.768 136.5 118.696L135.75 117.397M274.138 357.24C283.043 352.048 288.5 342.642 288.5 332.477V205.523C288.5 195.358 283.043 185.952 274.138 180.76L274.131 180.757L164.272 117.41C164.268 117.407 164.264 117.405 164.261 117.403M274.138 357.24L164.261 117.403M135.75 117.397C144.658 112.206 155.565 112.194 164.261 117.403M135.75 117.397L164.261 117.403" stroke="url(#paint10_linear_1_1268)" stroke-width="3"/>
</g>
<defs>
<linearGradient id="paint0_linear_1_1268" x1="234.543" y1="1715.16" x2="234.543" y2="0.443157" gradientUnits="userSpaceOnUse">
<stop stop-color="#BDFF00"/>
<stop offset="0.25" stop-color="#00FF48"/>
<stop offset="0.5" stop-color="#02B3FF"/>
<stop offset="0.75" stop-color="#5200FF"/>
<stop offset="1" stop-color="#D602B4"/>
<stop offset="1" stop-color="#FF00D6"/>
</linearGradient>
<linearGradient id="paint1_linear_1_1268" x1="-60.4493" y1="1298.71" x2="80.2155" y2="1435.71" gradientUnits="userSpaceOnUse">
<stop stop-color="white"/>
<stop offset="1" stop-color="white" stop-opacity="0"/>
</linearGradient>
<linearGradient id="paint2_linear_1_1268" x1="274.018" y1="1529.81" x2="188.595" y2="1392.47" gradientUnits="userSpaceOnUse">
<stop stop-color="white"/>
<stop offset="1" stop-color="white" stop-opacity="0"/>
</linearGradient>
<linearGradient id="paint3_linear_1_1268" x1="-60.4493" y1="709.706" x2="80.2155" y2="846.712" gradientUnits="userSpaceOnUse">
<stop stop-color="white"/>
<stop offset="1" stop-color="white" stop-opacity="0"/>
</linearGradient>
<linearGradient id="paint4_linear_1_1268" x1="274.018" y1="940.815" x2="188.595" y2="803.471" gradientUnits="userSpaceOnUse">
<stop stop-color="white"/>
<stop offset="1" stop-color="white" stop-opacity="0"/>
</linearGradient>
<linearGradient id="paint5_linear_1_1268" x1="105.551" y1="1002.71" x2="246.215" y2="1139.71" gradientUnits="userSpaceOnUse">
<stop stop-color="white"/>
<stop offset="1" stop-color="white" stop-opacity="0"/>
</linearGradient>
<linearGradient id="paint6_linear_1_1268" x1="440.018" y1="1233.81" x2="354.595" y2="1096.47" gradientUnits="userSpaceOnUse">
<stop stop-color="white"/>
<stop offset="1" stop-color="white" stop-opacity="0"/>
</linearGradient>
<linearGradient id="paint7_linear_1_1268" x1="105.551" y1="414.706" x2="246.215" y2="551.712" gradientUnits="userSpaceOnUse">
<stop stop-color="white"/>
<stop offset="1" stop-color="white" stop-opacity="0"/>
</linearGradient>
<linearGradient id="paint8_linear_1_1268" x1="440.018" y1="645.815" x2="354.595" y2="508.471" gradientUnits="userSpaceOnUse">
<stop stop-color="white"/>
<stop offset="1" stop-color="white" stop-opacity="0"/>
</linearGradient>
<linearGradient id="paint9_linear_1_1268" x1="-60.4493" y1="120.706" x2="80.2155" y2="257.712" gradientUnits="userSpaceOnUse">
<stop stop-color="white"/>
<stop offset="1" stop-color="white" stop-opacity="0"/>
</linearGradient>
<linearGradient id="paint10_linear_1_1268" x1="274.018" y1="351.815" x2="188.595" y2="214.471" gradientUnits="userSpaceOnUse">
<stop stop-color="white"/>
<stop offset="1" stop-color="white" stop-opacity="0"/>
</linearGradient>
</defs>
</svg>
