<svg width="350" height="65" viewBox="0 0 350 65" fill="none" xmlns="http://www.w3.org/2000/svg">
<rect x="190.5" y="0.5" width="64" height="64" rx="9.5" fill="#6019D3" stroke="white"/>
<path d="M237.391 25.3554C237.209 24.7078 236.856 24.1216 236.368 23.6589C235.866 23.1821 235.251 22.841 234.581 22.6678C232.072 22.0066 222.022 22.0066 222.022 22.0066C217.832 21.959 213.643 22.1686 209.479 22.6344C208.809 22.8204 208.195 23.1691 207.692 23.6496C207.198 24.1251 206.84 24.7115 206.653 25.354C206.203 27.7741 205.985 30.2313 206.001 32.6926C205.985 35.1518 206.203 37.6082 206.653 40.0313C206.836 40.6711 207.192 41.2548 207.688 41.7263C208.183 42.1978 208.801 42.5385 209.479 42.7188C212.021 43.3786 222.022 43.3786 222.022 43.3786C226.217 43.4264 230.411 43.2167 234.581 42.7508C235.251 42.5777 235.866 42.2366 236.368 41.7597C236.856 41.2972 237.209 40.7109 237.39 40.0633C237.851 37.6442 238.075 35.1859 238.059 32.7234C238.094 30.2504 237.87 27.7805 237.391 25.354V25.3554ZM218.827 37.2662V28.1204L227.189 32.694L218.827 37.2662Z" fill="white"/>
<rect x="285.5" y="0.5" width="64" height="64" rx="9.5" fill="#6019D3" stroke="white"/>
<path d="M328.423 43.9032H305.825C305.076 43.9032 304.357 43.6016 303.827 43.0647C303.298 42.5278 303 41.7996 303 41.0403V23.7384C303.032 23.0009 303.343 22.3043 303.87 21.794C304.396 21.2838 305.096 20.9993 305.825 21H328.423C329.172 21 329.89 21.3016 330.42 21.8385C330.95 22.3754 331.247 23.1036 331.247 23.8629V41.0403C331.247 41.7996 330.95 42.5278 330.42 43.0647C329.89 43.6016 329.172 43.9032 328.423 43.9032ZM305.825 26.5369V41.0403H328.423V26.5369L317.124 34.1694L305.825 26.5369ZM306.955 23.8629L317.124 30.7339L327.293 23.8629H306.955Z" fill="white"/>
<rect x="95.5" y="0.5" width="64" height="64" rx="9.5" fill="#6019D3" stroke="white"/>
<path d="M127.505 18C123.569 18 123.074 18.0181 121.527 18.087C119.981 18.1596 118.927 18.4025 118.004 18.7615C117.036 19.1257 116.159 19.6968 115.435 20.4351C114.697 21.1598 114.126 22.0366 113.762 23.0044C113.403 23.9254 113.158 24.9807 113.087 26.5219C113.018 28.0722 113 28.5654 113 32.5072C113 36.4454 113.018 36.9386 113.087 38.4852C113.16 40.03 113.403 41.0835 113.762 42.0064C114.133 42.9601 114.628 43.7688 115.435 44.5757C116.24 45.3825 117.049 45.8793 118.003 46.2492C118.927 46.6082 119.979 46.853 121.524 46.9237C123.072 46.9926 123.565 47.0108 127.505 47.0108C131.445 47.0108 131.937 46.9926 133.485 46.9237C135.028 46.8512 136.085 46.6082 137.008 46.2492C137.976 45.8849 138.852 45.3138 139.576 44.5757C140.383 43.7688 140.878 42.9601 141.249 42.0064C141.606 41.0835 141.851 40.03 141.924 38.4852C141.993 36.9386 142.011 36.4454 142.011 32.5054C142.011 28.5654 141.993 28.0722 141.924 26.5237C141.851 24.9807 141.606 23.9254 141.249 23.0044C140.885 22.0365 140.314 21.1598 139.576 20.4351C138.852 19.6965 137.975 19.1253 137.006 18.7615C136.082 18.4025 135.026 18.1577 133.483 18.087C131.935 18.0181 131.444 18 127.502 18H127.507H127.505ZM126.205 20.6146H127.507C131.38 20.6146 131.839 20.6273 133.367 20.698C134.782 20.7615 135.55 20.999 136.062 21.1966C136.738 21.4595 137.222 21.775 137.73 22.2827C138.238 22.7904 138.551 23.2727 138.814 23.9508C139.014 24.4603 139.249 25.2291 139.313 26.6434C139.383 28.1719 139.398 28.6306 139.398 32.5018C139.398 36.3729 139.383 36.8334 139.313 38.3619C139.249 39.7762 139.012 40.5432 138.814 41.0545C138.582 41.6843 138.21 42.2538 137.728 42.7208C137.22 43.2285 136.738 43.5422 136.06 43.8051C135.552 44.0045 134.783 44.2402 133.367 44.3055C131.839 44.3744 131.38 44.3907 127.507 44.3907C123.634 44.3907 123.174 44.3744 121.645 44.3055C120.231 44.2402 119.464 44.0045 118.953 43.8051C118.323 43.5728 117.753 43.2023 117.285 42.7208C116.802 42.2531 116.43 41.683 116.197 41.0527C115.999 40.5432 115.761 39.7744 115.698 38.3601C115.629 36.8316 115.615 36.3729 115.615 32.4981C115.615 28.6252 115.629 28.1683 115.698 26.6398C115.763 25.2255 115.999 24.4567 116.198 23.9454C116.461 23.2691 116.777 22.785 117.285 22.2773C117.792 21.7696 118.275 21.4559 118.953 21.193C119.464 20.9935 120.231 20.7578 121.645 20.6926C122.983 20.6309 123.502 20.6128 126.205 20.611V20.6146V20.6146ZM135.249 23.0225C135.021 23.0225 134.795 23.0675 134.583 23.155C134.372 23.2425 134.18 23.3707 134.019 23.5323C133.857 23.6939 133.729 23.8858 133.641 24.097C133.554 24.3082 133.509 24.5345 133.509 24.7631C133.509 24.9917 133.554 25.2181 133.641 25.4292C133.729 25.6404 133.857 25.8323 134.019 25.994C134.18 26.1556 134.372 26.2838 134.583 26.3713C134.795 26.4588 135.021 26.5038 135.249 26.5038C135.711 26.5038 136.154 26.3204 136.48 25.994C136.807 25.6675 136.99 25.2248 136.99 24.7631C136.99 24.3015 136.807 23.8587 136.48 23.5323C136.154 23.2059 135.711 23.0225 135.249 23.0225V23.0225ZM127.507 25.0569C126.519 25.0415 125.538 25.2227 124.621 25.5902C123.703 25.9576 122.868 26.5039 122.164 27.1972C121.46 27.8904 120.901 28.7169 120.519 29.6283C120.137 30.5398 119.941 31.5181 119.941 32.5063C119.941 33.4945 120.137 34.4728 120.519 35.3842C120.901 36.2957 121.46 37.1221 122.164 37.8154C122.868 38.5087 123.703 39.0549 124.621 39.4224C125.538 39.7898 126.519 39.9711 127.507 39.9557C129.463 39.9252 131.328 39.1269 132.7 37.7332C134.072 36.3395 134.841 34.4621 134.841 32.5063C134.841 30.5505 134.072 28.6731 132.7 27.2794C131.328 25.8856 129.463 25.0874 127.507 25.0569V25.0569ZM127.507 27.6696C128.79 27.6696 130.02 28.1791 130.927 29.086C131.833 29.9929 132.343 31.2229 132.343 32.5054C132.343 33.7879 131.833 35.0179 130.927 35.9248C130.02 36.8316 128.79 37.3411 127.507 37.3411C126.225 37.3411 124.995 36.8316 124.088 35.9248C123.181 35.0179 122.671 33.7879 122.671 32.5054C122.671 31.2229 123.181 29.9929 124.088 29.086C124.995 28.1791 126.225 27.6696 127.507 27.6696V27.6696Z" fill="white"/>
<rect x="0.5" y="0.5" width="64" height="64" rx="9.5" fill="#6019D3" stroke="white"/>
<path d="M47.7742 22.8938C46.9451 24.1395 45.9279 25.2015 44.7226 26.0796C44.7345 26.3151 44.7404 26.5813 44.7404 26.8781C44.7404 28.5275 44.5024 30.1789 44.0262 31.8323C43.5501 33.4857 42.8228 35.0683 41.8443 36.5801C40.8658 38.0919 39.7002 39.4313 38.3476 40.5981C36.995 41.7649 35.3691 42.6953 33.4699 43.3892C31.5706 44.0832 29.5352 44.4301 27.3635 44.4301C23.9743 44.4301 20.8531 43.5059 18 41.6575C18.5064 41.7144 18.9921 41.7428 19.457 41.7428C22.2885 41.7428 24.8174 40.8619 27.0438 39.1001C25.7237 39.0756 24.5413 38.6651 23.4969 37.8686C22.4524 37.072 21.7336 36.0542 21.3405 34.8151C21.7291 34.8899 22.1126 34.9272 22.491 34.9272C23.0357 34.9272 23.5717 34.8555 24.0989 34.712C22.69 34.4269 21.5212 33.7182 20.5925 32.5856C19.6639 31.453 19.1996 30.1458 19.1996 28.664V28.5876C20.0643 29.0713 20.9868 29.3285 21.9668 29.3594C21.1322 28.7974 20.4705 28.0645 19.9817 27.1607C19.4928 26.257 19.2484 25.2789 19.2484 24.2266C19.2484 23.1168 19.5237 22.0833 20.0743 21.1263C21.6065 23.0254 23.463 24.5433 25.6438 25.6798C27.8247 26.8164 30.1644 27.4476 32.6629 27.5735C32.5563 27.1249 32.5029 26.6568 32.5028 26.1691C32.5028 24.4664 33.0993 23.0126 34.2924 21.8075C35.4855 20.6025 36.9249 20 38.6106 20C40.3754 20 41.862 20.6491 43.0703 21.9473C44.4508 21.6711 45.7434 21.1716 46.9481 20.4486C46.4839 21.924 45.5896 23.0622 44.265 23.8631C45.4824 23.717 46.6521 23.3939 47.7741 22.8938H47.7742Z" fill="white"/>
</svg>
