<svg width="829" height="829" viewBox="0 0 829 829" fill="none" xmlns="http://www.w3.org/2000/svg">
<g filter="url(#filter0_f_1_1946)">
<path d="M414.5 778C615.256 778 778 615.256 778 414.5C778 213.744 615.256 51 414.5 51C213.744 51 51 213.744 51 414.5C51 615.256 213.744 778 414.5 778Z" fill="url(#paint0_radial_1_1946)"/>
</g>
<path d="M753.918 567.625C755.925 567.625 757.553 565.998 757.553 563.99C757.553 561.982 755.925 560.355 753.918 560.355C751.91 560.355 750.283 561.982 750.283 563.99C750.283 565.998 751.91 567.625 753.918 567.625Z" fill="url(#paint1_radial_1_1946)"/>
<path d="M665.314 445.397C667.322 445.397 668.949 443.769 668.949 441.762C668.949 439.754 667.322 438.127 665.314 438.127C663.307 438.127 661.679 439.754 661.679 441.762C661.679 443.769 663.307 445.397 665.314 445.397Z" fill="url(#paint2_radial_1_1946)"/>
<path d="M668.042 260.467C670.049 260.467 671.676 258.84 671.676 256.832C671.676 254.825 670.049 253.197 668.042 253.197C666.034 253.197 664.406 254.825 664.406 256.832C664.406 258.84 666.034 260.467 668.042 260.467Z" fill="url(#paint3_radial_1_1946)"/>
<path d="M718.023 297.725C720.031 297.725 721.658 296.097 721.658 294.09C721.658 292.082 720.031 290.455 718.023 290.455C716.015 290.455 714.388 292.082 714.388 294.09C714.388 296.097 716.015 297.725 718.023 297.725Z" fill="url(#paint4_radial_1_1946)"/>
<path d="M626.239 323.171C628.247 323.171 629.874 321.543 629.874 319.536C629.874 317.528 628.247 315.901 626.239 315.901C624.232 315.901 622.604 317.528 622.604 319.536C622.604 321.543 624.232 323.171 626.239 323.171Z" fill="url(#paint5_radial_1_1946)"/>
<path d="M543.543 224.117C545.551 224.117 547.178 222.489 547.178 220.482C547.178 218.474 545.551 216.847 543.543 216.847C541.535 216.847 539.908 218.474 539.908 220.482C539.908 222.489 541.535 224.117 543.543 224.117Z" fill="url(#paint6_radial_1_1946)"/>
<path d="M260.921 275.462C262.928 275.462 264.556 273.834 264.556 271.827C264.556 269.819 262.928 268.192 260.921 268.192C258.913 268.192 257.286 269.819 257.286 271.827C257.286 273.834 258.913 275.462 260.921 275.462Z" fill="url(#paint7_radial_1_1946)"/>
<path d="M588.526 182.315C590.533 182.315 592.161 180.688 592.161 178.68C592.161 176.673 590.533 175.045 588.526 175.045C586.518 175.045 584.891 176.673 584.891 178.68C584.891 180.688 586.518 182.315 588.526 182.315Z" fill="url(#paint8_radial_1_1946)"/>
<path d="M175.499 315.901C177.507 315.901 179.135 314.273 179.135 312.266C179.135 310.258 177.507 308.631 175.499 308.631C173.492 308.631 171.865 310.258 171.865 312.266C171.865 314.273 173.492 315.901 175.499 315.901Z" fill="url(#paint9_radial_1_1946)"/>
<path d="M150.509 256.831C152.516 256.831 154.144 255.204 154.144 253.196C154.144 251.189 152.516 249.561 150.509 249.561C148.501 249.561 146.874 251.189 146.874 253.196C146.874 255.204 148.501 256.831 150.509 256.831Z" fill="url(#paint10_radial_1_1946)"/>
<path d="M86.4414 326.807C88.449 326.807 90.0764 325.179 90.0764 323.172C90.0764 321.164 88.449 319.537 86.4414 319.537C84.4338 319.537 82.8064 321.164 82.8064 323.172C82.8064 325.179 84.4338 326.807 86.4414 326.807Z" fill="url(#paint11_radial_1_1946)"/>
<path d="M634.871 642.142C636.879 642.142 638.506 640.515 638.506 638.507C638.506 636.5 636.879 634.872 634.871 634.872C632.864 634.872 631.236 636.5 631.236 638.507C631.236 640.515 632.864 642.142 634.871 642.142Z" fill="url(#paint12_radial_1_1946)"/>
<path d="M559.446 516.28C561.454 516.28 563.082 514.653 563.082 512.645C563.082 510.637 561.454 509.01 559.446 509.01C557.439 509.01 555.812 510.637 555.812 512.645C555.812 514.653 557.439 516.28 559.446 516.28Z" fill="url(#paint13_radial_1_1946)"/>
<path d="M154.597 462.209C156.605 462.209 158.232 460.582 158.232 458.574C158.232 456.566 156.605 454.939 154.597 454.939C152.59 454.939 150.962 456.566 150.962 458.574C150.962 460.582 152.59 462.209 154.597 462.209Z" fill="url(#paint14_radial_1_1946)"/>
<path d="M240.928 449.033C242.936 449.033 244.563 447.405 244.563 445.398C244.563 443.39 242.936 441.763 240.928 441.763C238.921 441.763 237.293 443.39 237.293 445.398C237.293 447.405 238.921 449.033 240.928 449.033Z" fill="url(#paint15_radial_1_1946)"/>
<path d="M191.855 680.308C193.863 680.308 195.49 678.681 195.49 676.673C195.49 674.666 193.863 673.038 191.855 673.038C189.848 673.038 188.22 674.666 188.22 676.673C188.22 678.681 189.848 680.308 191.855 680.308Z" fill="url(#paint16_radial_1_1946)"/>
<path d="M568.986 612.607C569.99 612.607 570.804 611.793 570.804 610.789C570.804 609.785 569.99 608.972 568.986 608.972C567.982 608.972 567.169 609.785 567.169 610.789C567.169 611.793 567.982 612.607 568.986 612.607Z" fill="url(#paint17_radial_1_1946)"/>
<path d="M660.77 545.814C661.773 545.814 662.587 545 662.587 543.996C662.587 542.993 661.773 542.179 660.77 542.179C659.766 542.179 658.952 542.993 658.952 543.996C658.952 545 659.766 545.814 660.77 545.814Z" fill="url(#paint18_radial_1_1946)"/>
<path d="M739.832 456.303C740.836 456.303 741.65 455.489 741.65 454.485C741.65 453.481 740.836 452.668 739.832 452.668C738.828 452.668 738.015 453.481 738.015 454.485C738.015 455.489 738.828 456.303 739.832 456.303Z" fill="url(#paint19_radial_1_1946)"/>
<path d="M207.305 593.977C208.309 593.977 209.123 593.164 209.123 592.16C209.123 591.156 208.309 590.342 207.305 590.342C206.301 590.342 205.488 591.156 205.488 592.16C205.488 593.164 206.301 593.977 207.305 593.977Z" fill="url(#paint20_radial_1_1946)"/>
<path d="M203.67 537.182C204.674 537.182 205.488 536.368 205.488 535.364C205.488 534.361 204.674 533.547 203.67 533.547C202.666 533.547 201.853 534.361 201.853 535.364C201.853 536.368 202.666 537.182 203.67 537.182Z" fill="url(#paint21_radial_1_1946)"/>
<path d="M116.43 518.098C117.434 518.098 118.248 517.284 118.248 516.281C118.248 515.277 117.434 514.463 116.43 514.463C115.426 514.463 114.613 515.277 114.613 516.281C114.613 517.284 115.426 518.098 116.43 518.098Z" fill="url(#paint22_radial_1_1946)"/>
<path d="M558.637 360.136C558.718 360.107 558.791 360.057 558.848 359.992C579.604 336.481 596.16 314.625 607.528 295.727C618.912 276.803 624.859 261.232 625.017 249.948C625.173 238.663 619.535 231.894 608.439 230.047C597.375 228.205 581.109 231.294 560.611 239.13C560.499 239.174 560.399 239.244 560.32 239.335C559.828 239.906 560.432 240.762 561.139 240.501C580.175 233.472 595.34 230.749 605.798 232.49C616.744 234.312 622.306 240.99 622.152 252.123C621.998 263.257 616.129 278.619 604.897 297.289C593.905 315.565 577.995 336.643 558.085 359.315C557.738 359.709 558.142 360.311 558.637 360.136Z" fill="url(#paint23_linear_1_1946)"/>
<path d="M334.525 276.261C334.483 276.186 334.421 276.123 334.347 276.077C307.589 259.719 283.19 247.211 262.606 239.297C241.991 231.372 225.625 228.218 214.485 230.024C203.344 231.829 197.657 238.556 197.764 249.804C197.872 261.02 203.739 276.502 215.016 295.328C215.078 295.431 215.165 295.519 215.268 295.58C215.916 295.966 216.654 295.222 216.274 294.57C206.047 277.045 200.73 262.582 200.629 251.982C200.523 240.885 206.134 234.247 217.125 232.467C228.116 230.686 244.264 233.797 264.601 241.616C284.507 249.268 308.028 261.276 333.813 276.947C334.262 277.22 334.784 276.718 334.525 276.261Z" fill="url(#paint24_linear_1_1946)"/>
<path d="M488.832 548.228C488.874 548.303 488.936 548.366 489.01 548.411C515.768 564.769 540.167 577.278 560.751 585.192C581.366 593.116 597.732 596.27 608.873 594.465C620.013 592.659 625.7 585.932 625.593 574.684C625.485 563.468 619.618 547.986 608.341 529.16C608.279 529.057 608.192 528.97 608.09 528.908C607.441 528.523 606.703 529.267 607.083 529.918C617.31 547.444 622.626 561.906 622.728 572.507C622.834 583.603 617.224 590.241 606.232 592.022C595.241 593.803 579.093 590.692 558.756 582.873C538.849 575.221 515.329 563.212 489.544 547.541C489.095 547.268 488.573 547.771 488.832 548.228Z" fill="url(#paint25_linear_1_1946)"/>
<path d="M263.818 464.598C263.737 464.626 263.663 464.676 263.606 464.741C242.85 488.252 226.295 510.108 214.926 529.006C203.543 547.931 197.595 563.501 197.438 574.786C197.281 586.071 202.92 592.839 214.015 594.686C225.079 596.528 241.345 593.439 261.844 585.603C261.956 585.559 262.056 585.489 262.134 585.398C262.627 584.827 262.022 583.971 261.315 584.233C242.28 591.261 227.114 593.984 216.657 592.244C205.71 590.422 200.148 583.744 200.302 572.61C200.457 561.476 206.325 546.114 217.557 527.443C228.55 509.168 244.46 488.09 264.37 465.418C264.716 465.024 264.313 464.422 263.818 464.598Z" fill="url(#paint26_linear_1_1946)"/>
<g filter="url(#filter1_f_1_1946)">
<circle cx="414" cy="415" r="95" stroke="#576F8F" stroke-width="40"/>
</g>
<g clip-path="url(#clip0_1_1946)">
<path d="M345.04 324.573C336.695 326.341 329.128 332.635 325.981 340.449C323.895 345.54 324.001 341.934 324.001 414.486C324.001 487.215 323.895 483.538 326.016 488.558C328.668 494.852 334.149 500.332 340.479 502.984C345.464 505.105 341.822 504.999 414.522 504.999C486.408 504.999 483.367 505.07 488.212 503.196C494.294 500.792 499.987 495.311 502.78 489.124C505.008 484.174 504.831 490.008 504.972 415.723C505.043 354.98 505.008 347.909 504.513 345.399C502.391 334.898 494.223 326.695 483.756 324.538C481.317 324.043 473.997 323.972 414.274 324.008C356.39 324.043 347.197 324.114 345.04 324.573ZM423.079 356.536C426.12 357.208 428.666 358.622 430.964 360.92C434.43 364.385 435.738 367.921 435.738 374.002V377.361H430.434H425.13V374.179C425.13 370.219 424.423 368.557 422.301 367.461C421.064 366.825 420.215 366.754 414.451 366.754C408.829 366.754 407.804 366.825 406.743 367.426C404.303 368.699 403.242 372.093 404.551 374.427C404.869 375.028 412.153 382.983 420.745 392.105C429.302 401.192 436.799 409.218 437.4 409.889C441.042 414.168 444.083 420.638 445.497 427.214C446.452 431.598 446.381 440.367 445.391 444.751C442.209 458.364 433.404 468.476 421.7 471.834C417.775 472.966 411.269 472.966 407.344 471.834C394.897 468.263 385.385 456.596 383.229 442.17C381.673 431.881 383.865 423.184 390.018 414.945C394.544 408.899 400.873 404.621 410.031 401.404C411.905 400.732 413.461 400.096 413.461 399.989C413.461 399.883 409.642 395.747 405.01 390.797C400.343 385.847 396.064 380.968 395.463 380.013C390.265 371.386 395.18 359.365 404.975 356.713C407.415 356.076 420.286 355.935 423.079 356.536Z" fill="#223145"/>
<path d="M415.031 411.596C412.526 412.532 409.609 413.77 408.536 414.348C403.418 417.017 399.482 422.108 398.354 427.474C397.804 430.034 397.996 434.107 398.767 437.216C401.299 447.068 409.664 453.315 417.617 451.251C420.479 450.508 422.185 449.49 424.69 446.985C426.671 445.032 427.276 444.206 428.35 442.032C430.331 437.959 430.799 435.813 430.799 430.887C430.799 427.199 430.716 426.484 430.056 424.282C429.093 421.118 427.469 418.008 425.708 415.972C423.809 413.77 419.956 409.835 419.736 409.862C419.654 409.862 417.535 410.66 415.031 411.596Z" fill="#223145"/>
</g>
<defs>
<filter id="filter0_f_1_1946" x="0.687599" y="0.687599" width="827.625" height="827.625" filterUnits="userSpaceOnUse" color-interpolation-filters="sRGB">
<feFlood flood-opacity="0" result="BackgroundImageFix"/>
<feBlend mode="normal" in="SourceGraphic" in2="BackgroundImageFix" result="shape"/>
<feGaussianBlur stdDeviation="25.1562" result="effect1_foregroundBlur_1_1946"/>
</filter>
<filter id="filter1_f_1_1946" x="239" y="240" width="350" height="350" filterUnits="userSpaceOnUse" color-interpolation-filters="sRGB">
<feFlood flood-opacity="0" result="BackgroundImageFix"/>
<feBlend mode="normal" in="SourceGraphic" in2="BackgroundImageFix" result="shape"/>
<feGaussianBlur stdDeviation="30" result="effect1_foregroundBlur_1_1946"/>
</filter>
<radialGradient id="paint0_radial_1_1946" cx="0" cy="0" r="1" gradientUnits="userSpaceOnUse" gradientTransform="translate(414.5 424.324) rotate(90) scale(353.676)">
<stop stop-color="white"/>
<stop offset="0.266145" stop-color="white"/>
<stop offset="0.595433" stop-color="#FFAE38"/>
<stop offset="0.616919" stop-color="#FF9560"/>
<stop offset="1" stop-color="#193749"/>
</radialGradient>
<radialGradient id="paint1_radial_1_1946" cx="0" cy="0" r="1" gradientUnits="userSpaceOnUse" gradientTransform="translate(753.918 563.99) rotate(90) scale(3.63499)">
<stop stop-color="white"/>
<stop offset="0.0001" stop-color="white"/>
<stop offset="0.287557" stop-color="white"/>
<stop offset="0.287657" stop-color="white" stop-opacity="0"/>
</radialGradient>
<radialGradient id="paint2_radial_1_1946" cx="0" cy="0" r="1" gradientUnits="userSpaceOnUse" gradientTransform="translate(665.314 441.762) rotate(90) scale(3.63499 3.63502)">
<stop stop-color="white"/>
<stop offset="0.0001" stop-color="white"/>
<stop offset="0.287557" stop-color="white"/>
<stop offset="0.287657" stop-color="white" stop-opacity="0"/>
</radialGradient>
<radialGradient id="paint3_radial_1_1946" cx="0" cy="0" r="1" gradientUnits="userSpaceOnUse" gradientTransform="translate(668.041 256.832) rotate(90) scale(3.63501 3.63499)">
<stop stop-color="white"/>
<stop offset="0.0001" stop-color="white"/>
<stop offset="0.287557" stop-color="white"/>
<stop offset="0.287657" stop-color="white" stop-opacity="0"/>
</radialGradient>
<radialGradient id="paint4_radial_1_1946" cx="0" cy="0" r="1" gradientUnits="userSpaceOnUse" gradientTransform="translate(718.023 294.09) rotate(90) scale(3.63501 3.63499)">
<stop stop-color="white"/>
<stop offset="0.0001" stop-color="white"/>
<stop offset="0.287557" stop-color="white"/>
<stop offset="0.287657" stop-color="white" stop-opacity="0"/>
</radialGradient>
<radialGradient id="paint5_radial_1_1946" cx="0" cy="0" r="1" gradientUnits="userSpaceOnUse" gradientTransform="translate(626.239 319.536) rotate(90) scale(3.63501 3.63499)">
<stop stop-color="white"/>
<stop offset="0.0001" stop-color="white"/>
<stop offset="0.287557" stop-color="white"/>
<stop offset="0.287657" stop-color="white" stop-opacity="0"/>
</radialGradient>
<radialGradient id="paint6_radial_1_1946" cx="0" cy="0" r="1" gradientUnits="userSpaceOnUse" gradientTransform="translate(543.543 220.482) rotate(90) scale(3.63501 3.63502)">
<stop stop-color="white"/>
<stop offset="0.0001" stop-color="white"/>
<stop offset="0.287557" stop-color="white"/>
<stop offset="0.287657" stop-color="white" stop-opacity="0"/>
</radialGradient>
<radialGradient id="paint7_radial_1_1946" cx="0" cy="0" r="1" gradientUnits="userSpaceOnUse" gradientTransform="translate(260.921 271.827) rotate(90) scale(3.63501 3.63499)">
<stop stop-color="white"/>
<stop offset="0.0001" stop-color="white"/>
<stop offset="0.287557" stop-color="white"/>
<stop offset="0.287657" stop-color="white" stop-opacity="0"/>
</radialGradient>
<radialGradient id="paint8_radial_1_1946" cx="0" cy="0" r="1" gradientUnits="userSpaceOnUse" gradientTransform="translate(588.526 178.68) rotate(90) scale(3.635 3.63499)">
<stop stop-color="white"/>
<stop offset="0.0001" stop-color="white"/>
<stop offset="0.287557" stop-color="white"/>
<stop offset="0.287657" stop-color="white" stop-opacity="0"/>
</radialGradient>
<radialGradient id="paint9_radial_1_1946" cx="0" cy="0" r="1" gradientUnits="userSpaceOnUse" gradientTransform="translate(175.5 312.266) rotate(90) scale(3.63501 3.635)">
<stop stop-color="white"/>
<stop offset="0.0001" stop-color="white"/>
<stop offset="0.287557" stop-color="white"/>
<stop offset="0.287657" stop-color="white" stop-opacity="0"/>
</radialGradient>
<radialGradient id="paint10_radial_1_1946" cx="0" cy="0" r="1" gradientUnits="userSpaceOnUse" gradientTransform="translate(150.509 253.196) rotate(90) scale(3.63501 3.635)">
<stop stop-color="white"/>
<stop offset="0.0001" stop-color="white"/>
<stop offset="0.287557" stop-color="white"/>
<stop offset="0.287657" stop-color="white" stop-opacity="0"/>
</radialGradient>
<radialGradient id="paint11_radial_1_1946" cx="0" cy="0" r="1" gradientUnits="userSpaceOnUse" gradientTransform="translate(86.4414 323.172) rotate(90) scale(3.63501 3.635)">
<stop stop-color="white"/>
<stop offset="0.0001" stop-color="white"/>
<stop offset="0.287557" stop-color="white"/>
<stop offset="0.287657" stop-color="white" stop-opacity="0"/>
</radialGradient>
<radialGradient id="paint12_radial_1_1946" cx="0" cy="0" r="1" gradientUnits="userSpaceOnUse" gradientTransform="translate(634.871 638.507) rotate(90) scale(3.63499)">
<stop stop-color="white"/>
<stop offset="0.0001" stop-color="white"/>
<stop offset="0.287557" stop-color="white"/>
<stop offset="0.287657" stop-color="white" stop-opacity="0"/>
</radialGradient>
<radialGradient id="paint13_radial_1_1946" cx="0" cy="0" r="1" gradientUnits="userSpaceOnUse" gradientTransform="translate(559.447 512.645) rotate(90) scale(3.63499)">
<stop stop-color="white"/>
<stop offset="0.0001" stop-color="white"/>
<stop offset="0.287557" stop-color="white"/>
<stop offset="0.287657" stop-color="white" stop-opacity="0"/>
</radialGradient>
<radialGradient id="paint14_radial_1_1946" cx="0" cy="0" r="1" gradientUnits="userSpaceOnUse" gradientTransform="translate(154.598 458.574) rotate(90) scale(3.63502 3.635)">
<stop stop-color="white"/>
<stop offset="0.0001" stop-color="white"/>
<stop offset="0.287557" stop-color="white"/>
<stop offset="0.287657" stop-color="white" stop-opacity="0"/>
</radialGradient>
<radialGradient id="paint15_radial_1_1946" cx="0" cy="0" r="1" gradientUnits="userSpaceOnUse" gradientTransform="translate(240.928 445.398) rotate(90) scale(3.63499)">
<stop stop-color="white"/>
<stop offset="0.0001" stop-color="white"/>
<stop offset="0.287557" stop-color="white"/>
<stop offset="0.287657" stop-color="white" stop-opacity="0"/>
</radialGradient>
<radialGradient id="paint16_radial_1_1946" cx="0" cy="0" r="1" gradientUnits="userSpaceOnUse" gradientTransform="translate(191.855 676.673) rotate(90) scale(3.63502 3.635)">
<stop stop-color="white"/>
<stop offset="0.0001" stop-color="white"/>
<stop offset="0.287557" stop-color="white"/>
<stop offset="0.287657" stop-color="white" stop-opacity="0"/>
</radialGradient>
<radialGradient id="paint17_radial_1_1946" cx="0" cy="0" r="1" gradientUnits="userSpaceOnUse" gradientTransform="translate(568.986 610.789) rotate(90) scale(1.81751 1.81748)">
<stop stop-color="white"/>
<stop offset="0.0001" stop-color="white"/>
<stop offset="0.287557" stop-color="white"/>
<stop offset="0.287657" stop-color="white" stop-opacity="0"/>
</radialGradient>
<radialGradient id="paint18_radial_1_1946" cx="0" cy="0" r="1" gradientUnits="userSpaceOnUse" gradientTransform="translate(660.77 543.996) rotate(90) scale(1.81751)">
<stop stop-color="white"/>
<stop offset="0.0001" stop-color="white"/>
<stop offset="0.287557" stop-color="white"/>
<stop offset="0.287657" stop-color="white" stop-opacity="0"/>
</radialGradient>
<radialGradient id="paint19_radial_1_1946" cx="0" cy="0" r="1" gradientUnits="userSpaceOnUse" gradientTransform="translate(739.832 454.485) rotate(90) scale(1.81748 1.81751)">
<stop stop-color="white"/>
<stop offset="0.0001" stop-color="white"/>
<stop offset="0.287557" stop-color="white"/>
<stop offset="0.287657" stop-color="white" stop-opacity="0"/>
</radialGradient>
<radialGradient id="paint20_radial_1_1946" cx="0" cy="0" r="1" gradientUnits="userSpaceOnUse" gradientTransform="translate(207.305 592.16) rotate(90) scale(1.81751 1.8175)">
<stop stop-color="white"/>
<stop offset="0.0001" stop-color="white"/>
<stop offset="0.287557" stop-color="white"/>
<stop offset="0.287657" stop-color="white" stop-opacity="0"/>
</radialGradient>
<radialGradient id="paint21_radial_1_1946" cx="0" cy="0" r="1" gradientUnits="userSpaceOnUse" gradientTransform="translate(203.67 535.364) rotate(90) scale(1.81748 1.8175)">
<stop stop-color="white"/>
<stop offset="0.0001" stop-color="white"/>
<stop offset="0.287557" stop-color="white"/>
<stop offset="0.287657" stop-color="white" stop-opacity="0"/>
</radialGradient>
<radialGradient id="paint22_radial_1_1946" cx="0" cy="0" r="1" gradientUnits="userSpaceOnUse" gradientTransform="translate(116.43 516.281) rotate(90) scale(1.81751 1.8175)">
<stop stop-color="white"/>
<stop offset="0.0001" stop-color="white"/>
<stop offset="0.287557" stop-color="white"/>
<stop offset="0.287657" stop-color="white" stop-opacity="0"/>
</radialGradient>
<linearGradient id="paint23_linear_1_1946" x1="559.361" y1="239.548" x2="559.138" y2="366.725" gradientUnits="userSpaceOnUse">
<stop stop-color="#FFDDAC"/>
<stop offset="0.0838498" stop-color="white"/>
<stop offset="1" stop-color="white" stop-opacity="0"/>
</linearGradient>
<linearGradient id="paint24_linear_1_1946" x1="215.644" y1="296.488" x2="340.928" y2="274.623" gradientUnits="userSpaceOnUse">
<stop stop-color="#FFDDAC"/>
<stop offset="0.0838498" stop-color="white"/>
<stop offset="1" stop-color="white" stop-opacity="0"/>
</linearGradient>
<linearGradient id="paint25_linear_1_1946" x1="607.713" y1="528.001" x2="482.429" y2="549.865" gradientUnits="userSpaceOnUse">
<stop stop-color="#FFDDAC"/>
<stop offset="0.0838498" stop-color="white"/>
<stop offset="1" stop-color="white" stop-opacity="0"/>
</linearGradient>
<linearGradient id="paint26_linear_1_1946" x1="263.093" y1="585.186" x2="263.317" y2="458.008" gradientUnits="userSpaceOnUse">
<stop stop-color="#FFDDAC"/>
<stop offset="0.0838498" stop-color="white"/>
<stop offset="1" stop-color="white" stop-opacity="0"/>
</linearGradient>
<clipPath id="clip0_1_1946">
<rect x="329" y="329" width="171" height="171" rx="85.5" fill="white"/>
</clipPath>
</defs>
</svg>
