<svg width="40" height="80" viewBox="0 0 40 80" fill="none" xmlns="http://www.w3.org/2000/svg">
<mask id="path-1-inside-1_1_1220" fill="white">
<path fill-rule="evenodd" clip-rule="evenodd" d="M20.1142 0C20.1669 0 20.2104 0.0419613 20.2129 0.0946109C21.1951 20.7176 29.4016 37.1846 39.7755 39.4962C39.9061 39.5253 40 39.6402 40 39.7741V39.7741C40 39.908 39.9061 40.0228 39.7755 40.0519C29.3226 42.3811 21.0702 59.0821 20.1917 79.9253C20.19 79.9668 20.1558 80 20.1142 80V80C20.0727 80 20.0385 79.9668 20.0367 79.9253C19.1506 58.9027 10.7632 42.0939 0.182557 39.995C0.0767989 39.974 0 39.8819 0 39.7741V39.7741C0 39.6663 0.0768036 39.5742 0.182562 39.5532C10.684 37.47 19.0249 20.8965 20.0156 0.0946146C20.0181 0.041965 20.0615 0 20.1142 0V0Z"/>
</mask>
<path fill-rule="evenodd" clip-rule="evenodd" d="M20.1142 0C20.1669 0 20.2104 0.0419613 20.2129 0.0946109C21.1951 20.7176 29.4016 37.1846 39.7755 39.4962C39.9061 39.5253 40 39.6402 40 39.7741V39.7741C40 39.908 39.9061 40.0228 39.7755 40.0519C29.3226 42.3811 21.0702 59.0821 20.1917 79.9253C20.19 79.9668 20.1558 80 20.1142 80V80C20.0727 80 20.0385 79.9668 20.0367 79.9253C19.1506 58.9027 10.7632 42.0939 0.182557 39.995C0.0767989 39.974 0 39.8819 0 39.7741V39.7741C0 39.6663 0.0768036 39.5742 0.182562 39.5532C10.684 37.47 19.0249 20.8965 20.0156 0.0946146C20.0181 0.041965 20.0615 0 20.1142 0V0Z" fill="#D8F474"/>
<path d="M20.0156 0.0946146L21.0145 0.142187L20.0156 0.0946146ZM0.182562 39.5532L-0.0120149 38.5723L0.182562 39.5532ZM0.182557 39.995L0.377136 39.0141L0.182557 39.995ZM20.0367 79.9253L21.0359 79.8832L20.0367 79.9253ZM20.1917 79.9253L19.1926 79.8832L20.1917 79.9253ZM39.7755 40.0519L39.993 41.028L39.7755 40.0519ZM20.2129 0.0946109L21.2117 0.0470387L20.2129 0.0946109ZM39.7755 39.4962L39.558 40.4723L39.7755 39.4962ZM39.9929 38.5202C35.2397 37.461 30.7844 33.0911 27.3678 26.2171C23.9698 19.3808 21.6976 10.2489 21.2117 0.0470387L19.214 0.142183C19.7103 10.5633 22.0325 19.9765 25.5768 27.1073C29.1024 34.2004 33.9373 39.2199 39.558 40.4723L39.9929 38.5202ZM21.1908 79.9674C21.6254 69.6562 23.8837 60.4114 27.2905 53.4873C30.7164 46.5245 35.2031 42.0953 39.993 41.028L39.558 39.0759C33.8949 40.3378 29.0291 45.4236 25.4959 52.6044C21.9437 59.8239 19.6365 69.3512 19.1926 79.8832L21.1908 79.9674ZM-0.0120219 40.9759C4.82879 41.9361 9.37428 46.3266 12.8499 53.3093C16.3057 60.2523 18.5993 69.5672 19.0376 79.9674L21.0359 79.8832C20.5881 69.2607 18.2449 59.66 14.6404 52.4181C11.0556 45.2161 6.11701 40.1527 0.377136 39.0141L-0.0120219 40.9759ZM19.0167 0.0470423C18.5266 10.3377 16.219 19.5392 12.7722 26.3942C9.30591 33.2879 4.79222 37.6193 -0.0120149 38.5723L0.377139 40.5341C6.07434 39.4039 10.9818 34.407 14.559 27.2927C18.1557 20.1397 20.5139 10.6534 21.0145 0.142187L19.0167 0.0470423ZM21.0145 0.142187C20.9919 0.615091 20.6029 1 20.1142 1V-1C19.5201 -1 19.0443 -0.531161 19.0167 0.0470423L21.0145 0.142187ZM1 39.7741C1 40.1512 0.731929 40.4637 0.377139 40.5341L-0.0120149 38.5723C-0.578322 38.6846 -1 39.1813 -1 39.7741H1ZM0.377136 39.0141C0.73195 39.0845 1 39.3969 1 39.7741H-1C-1 40.3669 -0.578352 40.8635 -0.0120219 40.9759L0.377136 39.0141ZM20.1142 79C20.6161 79 21.0154 79.3968 21.0359 79.8832L19.0376 79.9674C19.0616 80.5368 19.5292 81 20.1142 81V79ZM19.1926 79.8832C19.2131 79.3968 19.6124 79 20.1142 79V81C20.6992 81 21.1668 80.5368 21.1908 79.9674L19.1926 79.8832ZM39 39.7741C39 39.4301 39.2406 39.1466 39.558 39.0759L39.993 41.028C40.5717 40.899 41 40.3858 41 39.7741H39ZM21.2117 0.0470387C21.1842 -0.531212 20.7083 -1 20.1142 -1V1C19.6256 1 19.2365 0.615134 19.214 0.142183L21.2117 0.0470387ZM39.558 40.4723C39.2406 40.4016 39 40.1181 39 39.7741H41C41 39.1623 40.5716 38.6491 39.9929 38.5202L39.558 40.4723Z" fill="#3D3D3D" mask="url(#path-1-inside-1_1_1220)"/>
</svg>
