<svg width="52" height="112" viewBox="0 0 52 112" fill="none" xmlns="http://www.w3.org/2000/svg">
<mask id="path-1-inside-1_1_1213" fill="white">
<path fill-rule="evenodd" clip-rule="evenodd" d="M26.1485 0C26.217 0 26.2733 0.0546379 26.2763 0.123044C27.5506 28.9846 38.2095 52.0342 51.6871 55.2896C51.8699 55.3338 52 55.4956 52 55.6837V55.6837C52 55.8718 51.8699 56.0336 51.6871 56.0778C38.1072 59.3579 27.3889 82.7339 26.2489 111.903C26.2468 111.957 26.2025 112 26.1485 112V112C26.0945 112 26.0502 111.957 26.048 111.903C24.8981 82.48 14.0025 58.9514 0.254585 55.9967C0.106528 55.9649 0 55.8351 0 55.6837V55.6837C0 55.5323 0.106537 55.4025 0.254594 55.3707C13.8998 52.4381 24.7352 29.2378 26.0207 0.123055C26.0237 0.0546489 26.08 0 26.1485 0V0Z"/>
</mask>
<path fill-rule="evenodd" clip-rule="evenodd" d="M26.1485 0C26.217 0 26.2733 0.0546379 26.2763 0.123044C27.5506 28.9846 38.2095 52.0342 51.6871 55.2896C51.8699 55.3338 52 55.4956 52 55.6837V55.6837C52 55.8718 51.8699 56.0336 51.6871 56.0778C38.1072 59.3579 27.3889 82.7339 26.2489 111.903C26.2468 111.957 26.2025 112 26.1485 112V112C26.0945 112 26.0502 111.957 26.048 111.903C24.8981 82.48 14.0025 58.9514 0.254585 55.9967C0.106528 55.9649 0 55.8351 0 55.6837V55.6837C0 55.5323 0.106537 55.4025 0.254594 55.3707C13.8998 52.4381 24.7352 29.2378 26.0207 0.123055C26.0237 0.0546489 26.08 0 26.1485 0V0Z" fill="#D8F474"/>
<path d="M26.0207 0.123055L27.0197 0.167164L26.0207 0.123055ZM0.254594 55.3707L0.464715 56.3484L0.254594 55.3707ZM0.254585 55.9967L0.0444616 56.9744L0.254585 55.9967ZM26.048 111.903L25.0488 111.942L26.048 111.903ZM26.2489 111.903L25.2497 111.864L26.2489 111.903ZM51.6871 56.0778L51.4523 55.1057L51.6871 56.0778ZM26.2763 0.123044L25.2773 0.167153L26.2763 0.123044ZM51.6871 55.2896L51.4523 56.2617L51.6871 55.2896ZM51.9219 54.3176C45.635 52.799 39.7804 46.576 35.3136 36.8899C30.8701 27.2542 27.9081 14.4088 27.2754 0.0789355L25.2773 0.167153C25.9189 14.6989 28.9235 27.809 33.4974 37.7274C38.048 47.5952 44.2616 54.5248 51.4523 56.2617L51.9219 54.3176ZM27.2482 111.942C27.8142 97.4591 30.7579 84.4557 35.2127 74.6973C39.6912 64.8871 45.5868 58.58 51.9219 57.0498L51.4523 55.1057C44.2075 56.8557 37.954 63.8767 33.3933 73.8667C28.8091 83.9086 25.8237 97.1777 25.2497 111.864L27.2482 111.942ZM0.0444616 56.9744C6.44844 58.3507 12.4231 64.6041 16.9677 74.4435C21.4876 84.2294 24.4778 97.3328 25.0488 111.942L27.0473 111.864C26.4683 97.0501 23.4358 83.6777 18.7834 73.6049C14.1557 63.5856 7.80863 56.5974 0.464708 55.019L0.0444616 56.9744ZM25.0216 0.0789465C24.3834 14.5348 21.3747 27.4795 16.8663 37.1424C12.3335 46.8575 6.40015 53.0271 0.044472 54.393L0.464715 56.3484C7.75423 54.7817 14.0611 47.8849 18.6787 37.988C23.3207 28.0389 26.3725 14.8261 27.0197 0.167164L25.0216 0.0789465ZM27.0197 0.167164C26.9995 0.625677 26.6228 1 26.1485 1V-1C25.5372 -1 25.0479 -0.51638 25.0216 0.0789465L27.0197 0.167164ZM1 55.6837C1 56.0116 0.769517 56.2829 0.464715 56.3484L0.044472 54.393C-0.556444 54.5222 -1 55.0529 -1 55.6837H1ZM0.464708 55.019C0.769541 55.0845 1 55.3558 1 55.6837H-1C-1 56.3145 -0.556485 56.8452 0.0444616 56.9744L0.464708 55.019ZM26.1485 111C26.6392 111 27.0287 111.389 27.0473 111.864L25.0488 111.942C25.0716 112.525 25.5498 113 26.1485 113V111ZM25.2497 111.864C25.2683 111.389 25.6578 111 26.1485 111V113C26.7471 113 27.2254 112.525 27.2482 111.942L25.2497 111.864ZM51 55.6837C51 55.3999 51.196 55.1676 51.4523 55.1057L51.9219 57.0498C52.5438 56.8996 53 56.3436 53 55.6837H51ZM27.2754 0.0789355C27.2491 -0.516501 26.7597 -1 26.1485 -1V1C25.6743 1 25.2976 0.625777 25.2773 0.167153L27.2754 0.0789355ZM51.4523 56.2617C51.196 56.1998 51 55.9676 51 55.6837H53C53 55.0237 52.5437 54.4678 51.9219 54.3176L51.4523 56.2617Z" fill="#3D3D3D" mask="url(#path-1-inside-1_1_1213)"/>
</svg>
