<svg width="1599" height="606" viewBox="0 0 1599 606" fill="none" xmlns="http://www.w3.org/2000/svg">
<g opacity="0.7">
<mask id="path-1-inside-1_1_1825" fill="white">
<path fill-rule="evenodd" clip-rule="evenodd" d="M1599 492.999C1599 482.138 1595.46 471.572 1588.93 462.899L1490.69 332.6C1477.26 314.781 1477.26 290.219 1490.69 272.4L1588.93 142.101C1595.46 133.428 1599 122.862 1599 112.001V50C1599 22.3858 1576.61 0 1549 0H50C22.3858 0 0 22.3858 0 50V110.675C0 121.536 3.53657 132.102 10.0749 140.774L109.308 272.4C122.741 290.219 122.741 314.781 109.308 332.6L10.0749 464.226C3.53657 472.898 0 483.464 0 494.325V556C0 583.614 22.3858 606 50 606H1549C1576.61 606 1599 583.614 1599 556V492.999Z"/>
</mask>
<path fill-rule="evenodd" clip-rule="evenodd" d="M1599 492.999C1599 482.138 1595.46 471.572 1588.93 462.899L1490.69 332.6C1477.26 314.781 1477.26 290.219 1490.69 272.4L1588.93 142.101C1595.46 133.428 1599 122.862 1599 112.001V50C1599 22.3858 1576.61 0 1549 0H50C22.3858 0 0 22.3858 0 50V110.675C0 121.536 3.53657 132.102 10.0749 140.774L109.308 272.4C122.741 290.219 122.741 314.781 109.308 332.6L10.0749 464.226C3.53657 472.898 0 483.464 0 494.325V556C0 583.614 22.3858 606 50 606H1549C1576.61 606 1599 583.614 1599 556V492.999Z" fill="#782EE9"/>
<path d="M10.0749 464.226L7.67938 462.42L10.0749 464.226ZM1588.93 142.101L1586.53 140.295L1588.93 142.101ZM1588.93 462.899L1586.53 464.705L1588.93 462.899ZM1490.69 332.6L1493.09 330.794L1490.69 332.6ZM1490.69 272.4L1493.09 274.206L1490.69 272.4ZM1488.3 334.406L1586.53 464.705L1591.32 461.093L1493.09 330.794L1488.3 334.406ZM1586.53 140.295L1488.3 270.594L1493.09 274.206L1591.32 143.907L1586.53 140.295ZM1596 50V112.001H1602V50H1596ZM50 3H1549V-3H50V3ZM3 110.675V50H-3V110.675H3ZM111.703 270.594L12.4704 138.968L7.67939 142.58L106.912 274.206L111.703 270.594ZM12.4704 466.032L111.703 334.406L106.912 330.794L7.67938 462.42L12.4704 466.032ZM3 556V494.325H-3V556H3ZM1549 603H50V609H1549V603ZM1596 492.999V556H1602V492.999H1596ZM1549 609C1578.27 609 1602 585.271 1602 556H1596C1596 581.957 1574.96 603 1549 603V609ZM-3 556C-3 585.271 20.7289 609 50 609V603C24.0426 603 3 581.957 3 556H-3ZM7.67938 462.42C0.748761 471.613 -3 482.812 -3 494.325H3C3 484.116 6.32437 474.184 12.4704 466.032L7.67938 462.42ZM106.912 274.206C119.54 290.956 119.54 314.044 106.912 330.794L111.703 334.406C125.943 315.518 125.943 289.482 111.703 270.594L106.912 274.206ZM-3 110.675C-3 122.188 0.748767 133.387 7.67939 142.58L12.4704 138.968C6.32438 130.816 3 120.884 3 110.675H-3ZM50 -3C20.7289 -3 -3 20.729 -3 50H3C3 24.0427 24.0426 3 50 3V-3ZM1602 50C1602 20.7289 1578.27 -3 1549 -3V3C1574.96 3 1596 24.0426 1596 50H1602ZM1591.32 143.907C1598.25 134.714 1602 123.514 1602 112.001H1596C1596 122.211 1592.68 132.143 1586.53 140.295L1591.32 143.907ZM1586.53 464.705C1592.68 472.857 1596 482.789 1596 492.999H1602C1602 481.486 1598.25 470.286 1591.32 461.093L1586.53 464.705ZM1493.09 330.794C1480.46 314.044 1480.46 290.956 1493.09 274.206L1488.3 270.594C1474.06 289.482 1474.06 315.518 1488.3 334.406L1493.09 330.794Z" fill="url(#paint0_linear_1_1825)" mask="url(#path-1-inside-1_1_1825)"/>
</g>
<defs>
<linearGradient id="paint0_linear_1_1825" x1="227.5" y1="-0.000114293" x2="1317" y2="649.5" gradientUnits="userSpaceOnUse">
<stop stop-color="white"/>
<stop offset="1" stop-color="white" stop-opacity="0"/>
</linearGradient>
</defs>
</svg>
