<svg width="44" height="68" viewBox="0 0 44 68" fill="none" xmlns="http://www.w3.org/2000/svg">
<mask id="path-1-inside-1_1_1556" fill="white">
<path fill-rule="evenodd" clip-rule="evenodd" d="M22.1257 0C22.1839 0 22.2321 0.0458806 22.2357 0.103997C23.3246 17.6497 32.3753 31.6511 43.8067 33.5804C43.9178 33.5991 44 33.6948 44 33.8075V33.8075C44 33.9202 43.9178 34.0159 43.8067 34.0347C32.2871 35.9788 23.185 50.1821 22.2119 67.9179C22.2094 67.9637 22.1715 68 22.1256 68V68C22.0798 68 22.0419 67.9637 22.0394 67.9179C21.0582 50.0347 11.8124 35.743 0.156895 33.9887C0.0670755 33.9752 0 33.8984 0 33.8075V33.8075C0 33.7167 0.0670751 33.6398 0.156895 33.6263C11.7239 31.8854 20.9176 17.7967 22.0157 0.104003C22.0193 0.0458867 22.0675 0 22.1257 0V0Z"/>
</mask>
<path d="M22.0157 0.104003L21.0176 0.0420604L22.0157 0.104003ZM0.156895 33.6263L0.00806862 32.6374L0.156895 33.6263ZM0.156895 33.9887L0.00806469 34.9776L0.156895 33.9887ZM22.0394 67.9179L23.0379 67.8631L22.0394 67.9179ZM22.2119 67.9179L23.2104 67.9727L22.2119 67.9179ZM43.8067 34.0347L43.6403 33.0486L43.8067 34.0347ZM22.2357 0.103997L23.2338 0.0420544L22.2357 0.103997ZM43.8067 33.5804L43.6403 34.5664L43.8067 33.5804ZM43.9731 32.5943C38.617 31.6904 33.7107 27.9358 29.9831 22.1563C26.2605 16.3846 23.7691 8.66819 23.2338 0.0420544L21.2376 0.165939C21.7912 9.08552 24.3696 17.1427 28.3024 23.2404C32.2302 29.3303 37.565 33.5411 43.6403 34.5664L43.9731 32.5943ZM23.2104 67.9727C23.6889 59.2527 26.1648 51.4393 29.8973 45.5925C33.6349 39.7375 38.5756 35.9316 43.9731 35.0207L43.6403 33.0486C37.5181 34.0818 32.1481 38.3497 28.2115 44.5163C24.2697 50.6911 21.7081 58.8474 21.2134 67.8631L23.2104 67.9727ZM0.00806469 34.9776C5.4664 35.7991 10.4714 39.5771 14.2608 45.4473C18.0451 51.3095 20.5585 59.18 21.0409 67.9727L23.0379 67.8631C22.5391 58.7726 19.939 50.5556 15.9411 44.3626C11.9485 38.1776 6.50286 33.9326 0.305725 32.9999L0.00806469 34.9776ZM21.0176 0.0420604C20.4777 8.74065 17.9489 16.5138 14.1745 22.3008C10.3953 28.0953 5.42497 31.8222 0.00806862 32.6374L0.305721 34.6152C6.4558 33.6896 11.8659 29.5016 15.8497 23.3934C19.8385 17.2776 22.4556 9.16006 23.0138 0.165946L21.0176 0.0420604ZM23.0138 0.165946C22.9851 0.627638 22.6031 1 22.1257 1V-1C21.5318 -1 21.0535 -0.535865 21.0176 0.0420604L23.0138 0.165946ZM1 33.8075C1 34.2186 0.698185 34.5561 0.305721 34.6152L0.00806862 32.6374C-0.564035 32.7235 -1 33.2148 -1 33.8075H1ZM0.305725 32.9999C0.698182 33.059 1 33.3965 1 33.8075H-1C-1 34.4002 -0.564031 34.8915 0.00806469 34.9776L0.305725 32.9999ZM22.1256 67C22.6181 67 23.0117 67.386 23.0379 67.8631L21.0409 67.9727C21.0721 68.5413 21.5415 69 22.1256 69V67ZM21.2134 67.8631C21.2396 67.386 21.6333 67 22.1256 67V69C22.7098 69 23.1792 68.5414 23.2104 67.9727L21.2134 67.8631ZM43 33.8075C43 33.4241 43.278 33.1098 43.6403 33.0486L43.9731 35.0207C44.5575 34.9221 45 34.4163 45 33.8075H43ZM23.2338 0.0420544C23.1979 -0.535941 22.7195 -1 22.1257 -1V1C21.6484 1 21.2663 0.627702 21.2376 0.165939L23.2338 0.0420544ZM43.6403 34.5664C43.278 34.5053 43 34.1909 43 33.8075H45C45 33.1988 44.5575 32.6929 43.9731 32.5943L43.6403 34.5664Z" fill="#3D3D3D" mask="url(#path-1-inside-1_1_1556)"/>
</svg>
