<svg width="438" height="169" viewBox="0 0 438 169" fill="none" xmlns="http://www.w3.org/2000/svg">
<path fill-rule="evenodd" clip-rule="evenodd" d="M437.5 167.927C437.5 168.479 437.052 168.927 436.5 168.927H427.5C426.948 168.927 426.5 168.479 426.5 167.927C426.5 167.375 426.948 166.927 427.5 166.927H429.257C431.039 166.927 431.932 164.773 430.672 163.513L270.745 3.58606C270.37 3.21099 269.861 3.00028 269.331 3.00028L0.999996 3.0003C0.447711 3.0003 0 2.55259 0 2.0003V2.0003C0 1.44802 0.447715 1.0003 1 1.0003L267.75 1.00028C268.106 1.00028 268.447 0.859013 268.699 0.607561V0.607561C269.222 0.0839381 270.071 0.083938 270.595 0.607561L270.985 0.997686C270.987 0.999345 270.989 1.00028 270.991 1.00028V1.00028C270.996 1.00028 271 1.00424 271 1.00913V1.00913C271 1.01147 271.001 1.01372 271.003 1.01538L432.086 162.099C433.346 163.359 435.5 162.466 435.5 160.684V158.927C435.5 158.375 435.948 157.927 436.5 157.927C437.052 157.927 437.5 158.375 437.5 158.927V167.927Z" fill="#3D3D3D"/>
</svg>
