<svg width="348" height="106" viewBox="0 0 348 106" fill="none" xmlns="http://www.w3.org/2000/svg">
<path fill-rule="evenodd" clip-rule="evenodd" d="M1.54399 3.4788C1.02502 3.66769 0.757429 4.24154 0.946322 4.76051L4.0245 13.2177C4.2134 13.7367 4.78724 14.0043 5.30622 13.8154C5.82519 13.6265 6.09278 13.0527 5.90389 12.5337L5.30284 10.8823C4.69342 9.20797 6.41259 7.63265 8.02746 8.38567L216.733 105.707C217.067 105.863 217.464 105.718 217.62 105.384V105.384C217.73 105.149 217.966 104.999 218.225 104.999H347C347.553 104.999 348 104.551 348 103.999V103.999C348 103.447 347.553 102.999 347 102.999H216.062C216.028 102.999 216 103.027 216 103.061V103.061C216 103.106 215.953 103.136 215.912 103.117L8.87269 6.57306C7.25783 5.82003 7.35954 3.49047 9.03389 2.88106L10.6853 2.28C11.2042 2.09111 11.4718 1.51727 11.2829 0.998289C11.094 0.479315 10.5202 0.211729 10.0012 0.400618L1.54399 3.4788Z" fill="#3D3D3D"/>
</svg>
