<svg width="317" height="107" viewBox="0 0 317 107" fill="none" xmlns="http://www.w3.org/2000/svg">
<path fill-rule="evenodd" clip-rule="evenodd" d="M101.163 3.17952C100.899 3.05613 100.61 2.99219 100.318 2.99219H1.00012C0.447837 2.99219 0.000122061 2.54447 0.000122061 1.99219V1.99219C0.000122061 1.4399 0.447834 0.992188 1.00012 0.992188H101.774C101.899 0.992188 102 1.09357 102 1.21864V1.21864C102 1.30665 102.051 1.38669 102.131 1.42388L309.814 98.2529C311.429 99.0058 313.148 97.4304 312.538 95.7561L311.937 94.1048C311.748 93.5858 312.016 93.0119 312.535 92.823C313.054 92.6341 313.628 92.9016 313.817 93.4206L316.895 101.878C317.084 102.397 316.817 102.97 316.298 103.159L307.841 106.238C307.322 106.427 306.748 106.159 306.559 105.64C306.37 105.122 306.637 104.548 307.156 104.359L308.808 103.758C310.482 103.148 310.584 100.819 308.969 100.066L101.163 3.17952Z" fill="#3D3D3D"/>
</svg>
