<svg width="398" height="106" viewBox="0 0 398 106" fill="none" xmlns="http://www.w3.org/2000/svg">
<path fill-rule="evenodd" clip-rule="evenodd" d="M396.456 3.44337C396.975 3.63226 397.243 4.20611 397.054 4.72508L393.975 13.1823C393.787 13.7013 393.213 13.9689 392.694 13.78C392.175 13.5911 391.907 13.0173 392.096 12.4983L392.697 10.8469C393.307 9.17254 391.587 7.59722 389.973 8.35024L181.266 105.672C180.932 105.827 180.536 105.683 180.38 105.349V105.349C180.271 105.115 180.035 104.965 179.776 104.965H0.999817C0.447532 104.965 -0.000183137 104.517 -0.000183137 103.965V103.965C-0.000183137 103.412 0.447527 102.965 0.999811 102.965H181.938C181.972 102.965 182 102.992 182 103.026V103.026C182 103.071 182.047 103.101 182.087 103.082L389.127 6.53763C390.742 5.7846 390.64 3.45504 388.966 2.84562L387.315 2.24457C386.796 2.05568 386.528 1.48184 386.717 0.962857C386.906 0.443883 387.48 0.176297 387.999 0.365186L396.456 3.44337Z" fill="#3D3D3D"/>
</svg>
