<svg width="271" height="170" viewBox="0 0 271 170" fill="none" xmlns="http://www.w3.org/2000/svg">
<path fill-rule="evenodd" clip-rule="evenodd" d="M169.893 2.0519C169.873 2.03275 169.887 2 169.914 2H270C270.552 2 271 1.55228 271 1V1C271 0.447715 270.552 0 270 0H169.34C169.152 0 169 0.152035 169 0.339579V0.659183C169 0.843774 168.777 0.936218 168.646 0.805692V0.805692C168.565 0.724777 168.434 0.724783 168.353 0.805698L6.0607 163.098C4.80077 164.358 2.64648 163.466 2.64648 161.684V159.927C2.64648 159.374 2.19877 158.927 1.64648 158.927C1.0942 158.927 0.646484 159.374 0.646484 159.927V168.927C0.646484 169.479 1.0942 169.927 1.64648 169.927H10.6465C11.1988 169.927 11.6465 169.479 11.6465 168.927C11.6465 168.374 11.1988 167.927 10.6465 167.927H8.88913C7.10732 167.927 6.21498 165.772 7.47491 164.513L169.893 2.09489C169.904 2.08302 169.904 2.06377 169.893 2.0519V2.0519Z" fill="#3D3D3D"/>
</svg>
