<svg width="29" height="24" viewBox="0 0 29 24" fill="none" xmlns="http://www.w3.org/2000/svg">
<path d="M29 2.84287C28.1924 4.06666 27.2017 5.10988 26.0277 5.97254C26.0393 6.2039 26.0451 6.46539 26.0451 6.75703C26.0451 8.37739 25.8132 9.99972 25.3495 11.624C24.8857 13.2483 24.1773 14.803 23.2243 16.2882C22.2712 17.7734 21.136 19.0892 19.8185 20.2355C18.5011 21.3818 16.9174 22.2958 15.0676 22.9775C13.2178 23.6592 11.2353 24 9.12006 24C5.81892 24 2.7789 23.0921 0 21.2762C0.493223 21.3321 0.966265 21.36 1.41913 21.36C4.17695 21.36 6.64014 20.4946 8.80868 18.7638C7.52282 18.7398 6.37124 18.3365 5.35394 17.554C4.33663 16.7715 3.63655 15.7716 3.25368 14.5543C3.63212 14.6277 4.00562 14.6644 4.3742 14.6644C4.90473 14.6644 5.42678 14.5939 5.94032 14.453C4.56807 14.173 3.42968 13.4766 2.52513 12.364C1.62062 11.2514 1.16836 9.96719 1.16836 8.51145V8.43642C2.01065 8.91156 2.90909 9.16429 3.86367 9.19463C3.05076 8.6425 2.40625 7.92251 1.93013 7.03466C1.45397 6.1468 1.2159 5.18599 1.2159 4.15221C1.2159 3.06192 1.48407 2.04666 2.0204 1.10642C3.51269 2.97213 5.32092 4.46327 7.44508 5.57983C9.56927 6.6964 11.8481 7.31651 14.2816 7.44016C14.1778 6.99947 14.1258 6.53959 14.1257 6.06052C14.1257 4.38779 14.7067 2.95952 15.8687 1.77571C17.0308 0.591904 18.4328 0 20.0746 0C21.7936 0 23.2415 0.637687 24.4184 1.91306C25.763 1.64172 27.022 1.15093 28.1954 0.440688C27.7433 1.89013 26.8722 3.00827 25.5821 3.79512C26.7678 3.65156 27.9072 3.33415 29 2.84287Z" fill="white"/>
</svg>
